<?xml version="1.0" encoding="utf-8"?>
<!-- Generator: Adobe Illustrator 16.0.0, SVG Export Plug-In . SVG Version: 6.00 Build 0)  -->
<!DOCTYPE svg PUBLIC "-//W3C//DTD SVG 1.1//EN" "http://www.w3.org/Graphics/SVG/1.1/DTD/svg11.dtd">
<svg version="1.1" id="Layer_1" xmlns="http://www.w3.org/2000/svg" xmlns:xlink="http://www.w3.org/1999/xlink" x="0px" y="0px"
	 width="321.657px" height="183.252px" viewBox="0 0 321.657 183.252" enable-background="new 0 0 321.657 183.252"
     xml:space="preserve">


<style>
    /* <![CDATA[ */
    .wheel {
        transform-origin: center;
		-moz-transform-origin: center;
		-webkit-transform-origin: center;
		-ms-transform-origin: center;
        -webkit-animation:spin 3s linear infinite;
        -moz-animation:spin 3s linear infinite;
        animation:spin 3s linear infinite;
		transform-box: fill-box;
    }

    .pedal {
        -webkit-animation:spin 1s linear infinite;
        -moz-animation:spin 1s linear infinite;
        animation:spin 1s linear infinite;
		transform-box: fill-box;
    }

    .pedal.left {
        -ms-transform-origin: top center;
        -webkit-transform-origin: top center;
        -moz-transform-origin: top center;
        transform-origin: top center;
    }

    .pedal.right {
        -ms-transform-origin: bottom center;
        -webkit-transform-origin: bottom center;
        -moz-transform-origin: bottom center;
        transform-origin: bottom center;
    }

    @-moz-keyframes spin { 100% { -moz-transform: rotate(-360deg); } }
    @-webkit-keyframes spin { 100% { -webkit-transform: rotate(-360deg); } }
    @keyframes spin { 100% { -webkit-transform: rotate(-360deg); transform:rotate(-360deg); } }

    /* ]]> */
  </style>


<line fill="none" stroke="#0D3F1A" stroke-width="2.336" stroke-linecap="round" stroke-linejoin="round" stroke-miterlimit="10" x1="103.073" y1="32.122" x2="209.609" y2="32.122"/>
<g>
	<defs>
		<rect id="SVGID_1_" width="321.657" height="183.252"/>
	</defs>
	<clipPath id="SVGID_2_">
		<use xlink:href="#SVGID_1_"  overflow="visible"/>
	</clipPath>
	
		<polyline clip-path="url(#SVGID_2_)" fill="none" stroke="#0D3F1A" stroke-width="2.336" stroke-linecap="round" stroke-linejoin="round" stroke-miterlimit="10" points="
		61.674,121.578 115.522,1.724 82.907,1.724 	"/>
	
		<line clip-path="url(#SVGID_2_)" fill="none" stroke="#0D3F1A" stroke-width="2.336" stroke-linecap="round" stroke-linejoin="round" stroke-miterlimit="10" x1="219.416" y1="1.168" x2="184.756" y2="117.93"/>
</g>
<line fill="none" stroke="#0D3F1A" stroke-width="2.336" stroke-linecap="round" stroke-linejoin="round" stroke-miterlimit="10" x1="209.61" y1="32.122" x2="259.982" y2="121.021"/>
<line fill="none" stroke="#0D3F1A" stroke-width="2.336" stroke-linecap="round" stroke-linejoin="round" stroke-miterlimit="10" x1="96.117" y1="44.916" x2="169.436" y2="119.042"/>
<g>
	<defs>
		<rect id="SVGID_3_" width="321.657" height="183.252"/>
	</defs>
	<clipPath id="SVGID_4_">
		<use xlink:href="#SVGID_3_"  overflow="visible"/>
	</clipPath>
	<path clip-path="url(#SVGID_4_)" fill="#2EB51F" d="M50.021,121.578c0-6.437,5.217-11.653,11.653-11.653
		s11.654,5.217,11.654,11.653S68.11,133.23,61.674,133.23S50.021,128.015,50.021,121.578"/>
	
		<circle clip-path="url(#SVGID_4_)" fill="none" stroke="#0D3F1A" stroke-width="2.336" stroke-linecap="round" stroke-linejoin="round" stroke-miterlimit="10" cx="61.675" cy="121.578" r="60.506"/>
	
		<circle clip-path="url(#SVGID_4_)" fill="none" stroke="#0D3F1A" stroke-width="2.336" stroke-linecap="round" stroke-linejoin="round" stroke-miterlimit="10" cx="61.675" cy="121.578" r="11.654"/>
	<path clip-path="url(#SVGID_4_)" fill="#0D3F1A" d="M55.847,121.578c0-3.219,2.609-5.826,5.827-5.826
		c3.218,0,5.827,2.607,5.827,5.826c0,3.218-2.609,5.826-5.827,5.826C58.456,127.404,55.847,124.796,55.847,121.578"/>
	<g class="wheel">
		<line clip-path="url(#SVGID_4_)" fill="none" stroke="#0D3F1A" stroke-width="2.336" stroke-linecap="round" stroke-linejoin="round" stroke-miterlimit="10" x1="61.674" y1="61.072" x2="61.674" y2="109.925"/>

		<line clip-path="url(#SVGID_4_)" fill="none" stroke="#0D3F1A" stroke-width="2.336" stroke-linecap="round" stroke-linejoin="round" stroke-miterlimit="10" x1="61.674" y1="133.231" x2="61.674" y2="182.084"/>

		<line clip-path="url(#SVGID_4_)" fill="none" stroke="#0D3F1A" stroke-width="2.336" stroke-linecap="round" stroke-linejoin="round" stroke-miterlimit="10" x1="1.168" y1="118.618" x2="50.021" y2="118.618"/>

		<line clip-path="url(#SVGID_4_)" fill="none" stroke="#0D3F1A" stroke-width="2.336" stroke-linecap="round" stroke-linejoin="round" stroke-miterlimit="10" x1="73.328" y1="121.578" x2="122.181" y2="121.578"/>

		<line clip-path="url(#SVGID_4_)" fill="none" stroke="#0D3F1A" stroke-width="2.336" stroke-linecap="round" stroke-linejoin="round" stroke-miterlimit="10" x1="18.891" y1="78.793" x2="53.435" y2="113.338"/>

		<line clip-path="url(#SVGID_4_)" fill="none" stroke="#0D3F1A" stroke-width="2.336" stroke-linecap="round" stroke-linejoin="round" stroke-miterlimit="10" x1="69.916" y1="129.818" x2="104.459" y2="164.361"/>

		<line clip-path="url(#SVGID_4_)" fill="none" stroke="#0D3F1A" stroke-width="2.336" stroke-linecap="round" stroke-linejoin="round" stroke-miterlimit="10" x1="18.893" y1="164.361" x2="53.436" y2="129.817"/>

		<line clip-path="url(#SVGID_4_)" fill="none" stroke="#0D3F1A" stroke-width="2.336" stroke-linecap="round" stroke-linejoin="round" stroke-miterlimit="10" x1="69.917" y1="113.337" x2="104.46" y2="78.792"/>

		<line clip-path="url(#SVGID_4_)" fill="none" stroke="#0D3F1A" stroke-width="2.336" stroke-linecap="round" stroke-linejoin="round" stroke-miterlimit="10" x1="5.651" y1="144.402" x2="50.892" y2="125.97"/>

		<line clip-path="url(#SVGID_4_)" fill="none" stroke="#0D3F1A" stroke-width="2.336" stroke-linecap="round" stroke-linejoin="round" stroke-miterlimit="10" x1="72.477" y1="117.177" x2="117.718" y2="98.744"/>

		<line clip-path="url(#SVGID_4_)" fill="none" stroke="#0D3F1A" stroke-width="2.336" stroke-linecap="round" stroke-linejoin="round" stroke-miterlimit="10" x1="117.718" y1="144.402" x2="72.478" y2="125.97"/>

		<line clip-path="url(#SVGID_4_)" fill="none" stroke="#0D3F1A" stroke-width="2.336" stroke-linecap="round" stroke-linejoin="round" stroke-miterlimit="10" x1="50.892" y1="117.177" x2="5.651" y2="98.744"/>

		<line clip-path="url(#SVGID_4_)" fill="none" stroke="#0D3F1A" stroke-width="2.336" stroke-linecap="round" stroke-linejoin="round" stroke-miterlimit="10" x1="85.525" y1="177.185" x2="66.276" y2="132.285"/>

		<line clip-path="url(#SVGID_4_)" fill="none" stroke="#0D3F1A" stroke-width="2.336" stroke-linecap="round" stroke-linejoin="round" stroke-miterlimit="10" x1="57.091" y1="110.863" x2="37.842" y2="65.964"/>

		<line clip-path="url(#SVGID_4_)" fill="none" stroke="#0D3F1A" stroke-width="2.336" stroke-linecap="round" stroke-linejoin="round" stroke-miterlimit="10" x1="37.842" y1="177.185" x2="57.091" y2="132.285"/>


		<line clip-path="url(#SVGID_4_)" fill="none" stroke="#0D3F1A" stroke-width="2.336" stroke-linecap="round" stroke-linejoin="round" stroke-miterlimit="10" x1="66.276" y1="110.863" x2="85.525" y2="65.964"/>
        </g>
	<path clip-path="url(#SVGID_4_)" fill="#2EB51F" d="M248.33,121.578c0-6.437,5.217-11.653,11.652-11.653
		c6.437,0,11.654,5.217,11.654,11.653s-5.218,11.652-11.654,11.652C253.547,133.23,248.33,128.015,248.33,121.578"/>


		<circle clip-path="url(#SVGID_4_)" fill="none" stroke="#0D3F1A" stroke-width="2.336" stroke-linecap="round" stroke-linejoin="round" stroke-miterlimit="10" cx="259.983" cy="121.578" r="60.506"/>
	
		<circle clip-path="url(#SVGID_4_)" fill="none" stroke="#0D3F1A" stroke-width="2.336" stroke-linecap="round" stroke-linejoin="round" stroke-miterlimit="10" cx="259.983" cy="121.578" r="11.653"/>
	<path clip-path="url(#SVGID_4_)" fill="#0D3F1A" d="M254.156,121.578c0-3.219,2.608-5.826,5.826-5.826
		c3.219,0,5.826,2.607,5.826,5.826c0,3.218-2.607,5.826-5.826,5.826C256.765,127.404,254.156,124.796,254.156,121.578"/>
    <g class="wheel">
		<line clip-path="url(#SVGID_4_)" fill="none" stroke="#0D3F1A" stroke-width="2.336" stroke-linecap="round" stroke-linejoin="round" stroke-miterlimit="10" x1="259.982" y1="61.072" x2="259.982" y2="109.925"/>
	
		<line clip-path="url(#SVGID_4_)" fill="none" stroke="#0D3F1A" stroke-width="2.336" stroke-linecap="round" stroke-linejoin="round" stroke-miterlimit="10" x1="259.982" y1="133.231" x2="259.982" y2="182.084"/>
	
		<line clip-path="url(#SVGID_4_)" fill="none" stroke="#0D3F1A" stroke-width="2.336" stroke-linecap="round" stroke-linejoin="round" stroke-miterlimit="10" x1="199.478" y1="121.578" x2="248.33" y2="121.578"/>
	
		<line clip-path="url(#SVGID_4_)" fill="none" stroke="#0D3F1A" stroke-width="2.336" stroke-linecap="round" stroke-linejoin="round" stroke-miterlimit="10" x1="271.637" y1="121.578" x2="320.489" y2="121.578"/>
	
		<line clip-path="url(#SVGID_4_)" fill="none" stroke="#0D3F1A" stroke-width="2.336" stroke-linecap="round" stroke-linejoin="round" stroke-miterlimit="10" x1="217.2" y1="78.793" x2="251.744" y2="113.338"/>
	
		<line clip-path="url(#SVGID_4_)" fill="none" stroke="#0D3F1A" stroke-width="2.336" stroke-linecap="round" stroke-linejoin="round" stroke-miterlimit="10" x1="268.225" y1="129.818" x2="302.769" y2="164.361"/>
	
		<line clip-path="url(#SVGID_4_)" fill="none" stroke="#0D3F1A" stroke-width="2.336" stroke-linecap="round" stroke-linejoin="round" stroke-miterlimit="10" x1="217.202" y1="164.361" x2="251.745" y2="129.817"/>
	
		<line clip-path="url(#SVGID_4_)" fill="none" stroke="#0D3F1A" stroke-width="2.336" stroke-linecap="round" stroke-linejoin="round" stroke-miterlimit="10" x1="268.225" y1="113.337" x2="302.77" y2="78.792"/>
	
		<line clip-path="url(#SVGID_4_)" fill="none" stroke="#0D3F1A" stroke-width="2.336" stroke-linecap="round" stroke-linejoin="round" stroke-miterlimit="10" x1="203.96" y1="144.402" x2="249.2" y2="125.97"/>
	
		<line clip-path="url(#SVGID_4_)" fill="none" stroke="#0D3F1A" stroke-width="2.336" stroke-linecap="round" stroke-linejoin="round" stroke-miterlimit="10" x1="270.786" y1="117.177" x2="316.026" y2="98.744"/>
	
		<line clip-path="url(#SVGID_4_)" fill="none" stroke="#0D3F1A" stroke-width="2.336" stroke-linecap="round" stroke-linejoin="round" stroke-miterlimit="10" x1="316.027" y1="144.402" x2="270.786" y2="125.97"/>
	
		<line clip-path="url(#SVGID_4_)" fill="none" stroke="#0D3F1A" stroke-width="2.336" stroke-linecap="round" stroke-linejoin="round" stroke-miterlimit="10" x1="249.201" y1="117.177" x2="203.96" y2="98.744"/>
	
		<line clip-path="url(#SVGID_4_)" fill="none" stroke="#0D3F1A" stroke-width="2.336" stroke-linecap="round" stroke-linejoin="round" stroke-miterlimit="10" x1="283.834" y1="177.185" x2="264.584" y2="132.285"/>
	
		<line clip-path="url(#SVGID_4_)" fill="none" stroke="#0D3F1A" stroke-width="2.336" stroke-linecap="round" stroke-linejoin="round" stroke-miterlimit="10" x1="255.4" y1="110.863" x2="236.151" y2="65.964"/>
	
		<line clip-path="url(#SVGID_4_)" fill="none" stroke="#0D3F1A" stroke-width="2.336" stroke-linecap="round" stroke-linejoin="round" stroke-miterlimit="10" x1="236.151" y1="177.185" x2="255.399" y2="132.285"/>
	
		<line clip-path="url(#SVGID_4_)" fill="none" stroke="#0D3F1A" stroke-width="2.336" stroke-linecap="round" stroke-linejoin="round" stroke-miterlimit="10" x1="264.585" y1="110.863" x2="283.834" y2="65.964"/>
    </g>

    <g class="pedal right">
		<polyline clip-path="url(#SVGID_4_)" fill="none" stroke="#0D3F1A" stroke-width="2.336" stroke-linecap="round" stroke-linejoin="round" stroke-miterlimit="10" points="
		176.124,116.19 173.403,100.447 182.7,99.314 	"/>
        <circle clip-path="url(#SVGID_4_)" fill="none" stroke="#0D3F1A" stroke-width="2.336" stroke-linecap="round" stroke-linejoin="round" stroke-miterlimit="10" cx="178.052" cy="131.557" r="1"/>
    </g>
	
		<path clip-path="url(#SVGID_4_)" fill="none" stroke="#0D3F1A" stroke-width="2.336" stroke-linecap="round" stroke-linejoin="round" stroke-miterlimit="10" d="
		M82.908,1.724h-6.871c-8.135,0-14.79,6.655-14.79,14.79c0,8.135,6.655,14.79,14.79,14.79"/>
	
		<line clip-path="url(#SVGID_4_)" fill="none" stroke="#0D3F1A" stroke-width="2.336" stroke-linecap="round" stroke-linejoin="round" stroke-miterlimit="10" x1="229.62" y1="1.168" x2="196.431" y2="1.168"/>
	<path clip-path="url(#SVGID_4_)" fill="#2EB51F" d="M162.854,131.557c0-8.396,6.806-15.199,15.198-15.199
		c8.396,0,15.199,6.804,15.199,15.199c0,8.394-6.804,15.197-15.199,15.197C169.659,146.754,162.854,139.95,162.854,131.557"/>
	
		<circle clip-path="url(#SVGID_4_)" fill="none" stroke="#0D3F1A" stroke-width="2.336" stroke-linecap="round" stroke-linejoin="round" stroke-miterlimit="10" cx="178.052" cy="131.557" r="15.199"/>
	
		<circle clip-path="url(#SVGID_4_)" fill="none" stroke="#0D3F1A" stroke-width="2.336" stroke-linecap="round" stroke-linejoin="round" stroke-miterlimit="10" cx="178.052" cy="131.557" r="15.199"/>
	<path clip-path="url(#SVGID_4_)" fill="#0D3F1A" d="M173.404,131.557c0-2.567,2.081-4.648,4.647-4.648
		c2.568,0,4.649,2.081,4.649,4.648c0,2.566-2.081,4.647-4.649,4.647C175.485,136.204,173.404,134.123,173.404,131.557"/>
	
		<polyline class="pedal left" clip-path="url(#SVGID_4_)" fill="none" stroke="#0D3F1A" stroke-width="2.336" stroke-linecap="round" stroke-linejoin="round" stroke-miterlimit="10" points="
		178.053,132.285 182.7,159.196 173.404,160.329 	"/>
</g>
</svg>
