<?xml version="1.0" standalone="no"?>
<!DOCTYPE svg PUBLIC "-//W3C//DTD SVG 1.1//EN" "http://www.w3.org/Graphics/SVG/1.1/DTD/svg11.dtd" >
<svg xmlns="http://www.w3.org/2000/svg">
<metadata>Generated by IcoMoon</metadata>
<defs>
<font id="icons" horiz-adv-x="1024">
<font-face units-per-em="1024" ascent="960" descent="-64" />
<missing-glyph horiz-adv-x="1024" />
<glyph unicode="&#x20;" horiz-adv-x="512" d="" />
<glyph unicode="&#xe900;" glyph-name="dollar-circle" d="M511.975-64c-282.291 0-511.975 229.684-511.975 512.025s229.684 511.975 511.975 511.975c282.341 0 512.075-229.684 512.075-512.025s-229.734-511.975-512.075-511.975zM511.975 919.429c-259.924 0-471.354-211.48-471.354-471.404s211.43-471.354 471.354-471.354c259.974 0 471.404 211.48 471.404 471.354 0 259.924-211.43 471.404-471.404 471.404zM480.18 241.008v51.303c-29.488 0.501-59.979 9.629-77.732 22.316l12.186 34.051c18.305-12.186 44.733-21.865 73.168-21.865 36.057 0 60.48 20.812 60.48 49.798 0 27.933-19.859 45.185-57.421 60.43-51.804 20.361-83.8 43.73-83.8 87.912 0 42.176 29.989 74.171 76.729 81.794v51.353h31.494v-49.297c30.441-1.003 51.253-9.127 65.997-17.753l-12.688-33.5c-10.682 6.118-31.494 17.251-63.991 17.251-39.117 0-53.86-23.37-53.86-43.68 0-26.429 18.806-39.668 63.038-57.923 52.306-21.313 78.735-47.742 78.735-92.977 0-40.119-27.983-77.732-80.339-86.357v-52.857h-31.995z" />
<glyph unicode="&#xe901;" glyph-name="leaf" horiz-adv-x="382" d="M194.414 135.477c-0.224-0.045-0.582 0-0.896 0h-4.615c-7.169 0-13.711 4.122-16.758 10.619-1.031 2.196-1.613 4.57-1.747 6.9-326.413 403.748-98.798 674.467-12.725 776.804 7.438 8.872 13.89 16.533 18.863 22.986 3.54 4.525 8.961 7.214 14.696 7.214v0c5.735 0 11.157-2.688 14.652-7.214 4.973-6.452 11.47-14.114 18.908-22.986 85.938-102.248 313.195-372.518-11.829-775.684 0-0.045 0-0.134 0-0.179 0-10.216-8.334-18.46-18.55-18.46zM191.233 912.147c-1.703-1.971-3.45-4.077-5.242-6.183-87.417-103.995-290.478-345.411 5.242-719.677 295.631 374.266 92.614 615.637 5.198 719.677-1.792 2.106-3.54 4.167-5.198 6.183zM191.233-64c-10.261 0-18.55 8.289-18.55 18.505v732.939c0 10.261 8.289 18.55 18.55 18.55s18.505-8.289 18.505-18.55v-732.894c0-10.261-8.289-18.55-18.505-18.55z" />
<glyph unicode="&#xe902;" glyph-name="bookmark" horiz-adv-x="626" d="M604.96-64c-2.721 0-5.442 0.523-8.006 1.57l-283.878 115.853-283.878-115.853c-6.489-2.773-13.919-1.988-19.832 2.041-5.861 3.977-9.367 10.57-9.367 17.582v981.615c0 11.669 9.471 21.193 21.193 21.193h583.767c11.721 0 21.193-9.471 21.193-21.193v-981.562c0-7.064-3.506-13.658-9.419-17.582-3.506-2.407-7.64-3.663-11.774-3.663zM313.024 97.535c2.721 0 5.442-0.576 8.006-1.57l262.685-107.219v928.868h-541.33v-928.868l262.685 107.219c2.564 0.994 5.285 1.57 7.954 1.57zM313.024 55.15c-11.721 0-21.193 9.524-21.193 21.193v277.598c0 11.721 9.524 21.193 21.193 21.193s21.193-9.524 21.193-21.193v-277.598c0.052-11.721-9.471-21.193-21.193-21.193zM118.627 610.818v209.834h29.565l67.293-106.173c15.541-24.594 27.681-46.729 37.676-68.183l0.628 0.314c-2.512 27.995-3.14 53.584-3.14 86.288v87.753h25.536v-209.886h-27.42l-66.665 106.539c-14.599 23.338-28.623 47.357-39.246 70.067l-0.89-0.314c1.57-26.478 2.198-51.7 2.198-86.55v-89.69h-25.536zM339.031 817.878c11.878 2.459 30.507 4.343 49.502 4.343 27.106 0 44.531-4.657 57.613-15.28 10.936-8.058 17.477-20.512 17.477-36.996 0-20.251-13.396-37.99-35.53-46.101v-0.628c19.937-4.971 43.327-21.507 43.327-52.642 0-18.053-7.169-31.763-17.739-42.019-14.652-13.396-38.304-19.623-72.578-19.623-18.681 0-33.019 1.256-42.071 2.459v206.485zM366.137 731.956h24.646c28.623 0 45.42 14.966 45.42 35.164 0 24.594-18.629 34.275-46.101 34.275-12.402 0-19.571-0.942-23.966-1.884v-67.555zM366.137 631.33c5.337-0.942 13.082-1.204 22.763-1.204 28.048 0 53.845 10.256 53.845 40.763 0 28.623-24.594 40.502-54.159 40.502h-22.449v-80.061zM604.96 461.16h-583.767c-11.721 0-21.193 9.471-21.193 21.193s9.471 21.193 21.193 21.193h583.767c11.721 0 21.193-9.471 21.193-21.193s-9.524-21.193-21.193-21.193z" />
<glyph unicode="&#xe903;" glyph-name="flag" horiz-adv-x="747" d="M19.702-64c-10.898 0-19.702 8.757-19.702 19.655v984.69c0 10.898 8.804 19.702 19.702 19.702s19.702-8.804 19.702-19.702v-984.69c-0.048-10.898-8.852-19.655-19.702-19.655zM727.846 364.646c-0.238-0.048-0.571-0.048-0.952 0h-707.192c-10.898 0-19.702 8.757-19.702 19.655v496.985c0 10.898 8.804 19.702 19.702 19.702h707.239c6.234 0 12.088-2.951 15.8-7.948s4.854-11.469 2.998-17.418l-73.146-242.806 71.528-237.38c2.189-3.141 3.426-6.996 3.426-11.089 0-10.946-8.852-19.702-19.702-19.702zM39.357 403.955h661.077l-67.197 223.151c-1.095 3.712-1.095 7.662 0 11.326l67.197 223.103h-661.077v-457.581z" />
<glyph unicode="&#xe904;" glyph-name="hamburger" d="M128 640h768c35.328 0 64 28.672 64 64s-28.672 64-64 64h-768c-35.328 0-64-28.672-64-64s28.672-64 64-64zM896 512h-768c-35.328 0-64-28.672-64-64s28.672-64 64-64h768c35.328 0 64 28.672 64 64s-28.672 64-64 64zM896 256h-768c-35.328 0-64-28.672-64-64s28.672-64 64-64h768c35.328 0 64 28.672 64 64s-28.672 64-64 64z" />
<glyph unicode="&#xe905;" glyph-name="arrow-up" horiz-adv-x="684" d="M342.101-64.1c-41.461 0-75.11 33.649-75.11 75.11v873.88c0 41.561 33.649 75.11 75.11 75.11s75.11-33.649 75.11-75.11v-873.88c0-41.461-33.649-75.11-75.11-75.11zM75.11 491.614c-17.025 0-34.15 5.809-48.171 17.526-31.747 26.639-35.953 74.008-9.314 105.855l266.991 318.266c26.739 31.847 74.209 35.853 105.855 9.314 31.747-26.639 35.853-74.109 9.113-105.855l-266.891-318.266c-14.922-17.726-36.153-26.839-57.584-26.839zM609.092 491.614c-21.431 0-42.662 9.113-57.484 26.839l-267.091 318.266c-26.639 31.747-22.433 79.216 9.314 105.855 31.646 26.539 79.016 22.533 105.755-9.314l266.991-318.266c26.739-31.747 22.633-79.216-9.213-105.855-14.021-11.817-31.146-17.526-48.271-17.526z" />
<glyph unicode="&#xe906;" glyph-name="hammer-remove" horiz-adv-x="1746" d="M1467.955 476.901c-4.097 0-8.194 1.185-11.699 3.406l-228.296 146.504c-10.070 6.466-12.982 19.893-6.516 29.913l90.43 140.976c6.466 10.168 19.893 12.933 29.913 6.565l228.296-146.455c10.070-6.466 12.982-19.843 6.516-29.913l-90.43-140.976c-3.060-4.837-7.997-8.243-13.574-9.477-1.53-0.395-3.060-0.543-4.64-0.543zM1269.622 651.541l191.818-123.058 67.033 104.547-191.818 123.058-67.033-104.547zM1205.353 569.898c-2.616 0-5.232 0.444-7.75 1.431l-131.992 50.694c-6.071 2.32-10.81 7.256-12.834 13.476s-1.135 12.982 2.369 18.461l189.942 296.069c3.505 5.479 9.28 9.132 15.746 9.823 6.565 0.691 12.982-1.481 17.573-6.022l101.141-98.821c7.355-7.207 8.688-18.51 3.060-27.198l-159.091-247.942c-3.998-6.368-11.008-9.971-18.165-9.971zM1105.94 652.923l90.677-34.849 140.038 218.226-69.501 67.872-161.214-251.249zM1534.791 324.572c-5.627 0-11.106 2.221-15.154 6.22l-101.141 98.821c-7.355 7.207-8.688 18.56-3.060 27.198l159.091 247.892c5.479 8.638 16.585 12.192 25.964 8.49l131.992-50.694c6.071-2.32 10.81-7.256 12.834-13.476s1.135-12.982-2.369-18.461l-189.942-296.069c-3.505-5.479-9.28-9.082-15.746-9.823-0.839-0.049-1.678-0.099-2.468-0.099zM1461.39 448.271l69.501-67.921 161.214 251.298-90.677 34.849-140.038-218.226zM1004.157-64.049c-17.326 0-34.158 4.936-49.016 14.463-20.436 13.081-34.553 33.467-39.785 57.308-5.183 23.891-0.889 48.325 12.291 68.81l381.316 525.55c7.059 9.675 20.584 11.797 30.258 4.837 9.675-7.059 11.847-20.584 4.837-30.258l-380.625-524.562c-6.17-9.675-8.49-22.509-5.726-35.096s10.168-23.249 20.88-30.061c10.662-6.911 23.397-9.28 36.083-6.466 12.538 2.764 23.249 10.168 30.061 20.88l317.541 563.558c5.874 10.415 19.152 14.167 29.567 8.243 10.415-5.874 14.117-19.103 8.243-29.518l-318.134-564.594c-13.722-21.522-34.109-35.688-58-40.871-6.664-1.481-13.229-2.221-19.794-2.221zM363.2 102.051c-200.259 0-363.2 162.991-363.2 363.299 0 200.259 162.942 363.2 363.2 363.2s363.2-162.942 363.2-363.2c0-200.308-162.892-363.299-363.2-363.299zM363.2 785.162c-176.368 0-319.861-143.493-319.861-319.861s143.493-319.861 319.861-319.861 319.861 143.493 319.861 319.861-143.444 319.861-319.861 319.861zM265.021 324.029c-4.837 0-9.675 1.629-13.722 4.985-9.28 7.552-10.613 21.225-3.011 30.456l196.31 239.155c7.602 9.231 21.275 10.563 30.505 3.011 9.231-7.602 10.613-21.275 3.011-30.505l-196.31-239.155c-4.294-5.183-10.514-7.947-16.783-7.947zM461.38 324.029c-6.269 0-12.488 2.715-16.783 7.947l-196.31 239.155c-7.602 9.231-6.269 22.904 3.011 30.505s22.904 6.22 30.505-3.011l196.31-239.155c7.602-9.28 6.22-22.904-3.011-30.456-4.048-3.357-8.934-4.985-13.722-4.985z" />
<glyph unicode="&#xe907;" glyph-name="bookmark-remove" horiz-adv-x="738" d="M15.201 223.691c-2.972 0-5.945 0.865-8.504 2.596-4.214 2.822-6.697 7.563-6.697 12.642v705.832c0 8.391 6.81 15.239 15.201 15.239h419.797c8.428 0 15.239-6.81 15.239-15.239v-561.385c0-8.428-6.848-15.239-15.239-15.239s-15.239 6.848-15.239 15.239v546.146h-389.319v-667.905l188.922 77.096c3.687 1.467 7.826 1.467 11.514 0l76.156-31.042c7.789-3.161 11.551-12.040 8.353-19.867-3.198-7.751-12.191-11.514-19.867-8.353l-70.436 28.709-204.16-83.305c-1.806-0.828-3.763-1.166-5.719-1.166zM225.118 309.366c-8.428 0-15.239 6.848-15.239 15.239v199.57c0 8.428 6.81 15.239 15.239 15.239s15.239-6.81 15.239-15.239v-199.57c0-8.391-6.81-15.239-15.239-15.239zM85.299 708.882v150.919h21.259l48.387-76.344c11.175-17.684 19.904-33.6 27.091-49.027l0.452 0.226c-1.806 20.13-2.258 38.492-2.258 62.008v63.137h18.362v-150.919h-19.716l-47.936 76.57c-10.498 16.819-20.582 34.052-28.182 50.382l-0.677-0.226c1.129-19.039 1.58-37.175 1.58-62.234v-64.491h-18.362zM243.781 857.807c8.504 1.768 21.936 3.123 35.594 3.123 19.49 0 32.020-3.349 41.427-10.987 7.864-5.832 12.567-14.75 12.567-26.639 0-14.561-9.632-27.317-25.511-33.149v-0.452c14.336-3.574 31.117-15.464 31.117-37.852 0-12.981-5.155-22.839-12.755-30.214-10.535-9.595-27.542-14.072-52.188-14.072-13.433 0-23.742 0.903-30.252 1.768v148.473zM263.309 795.987h17.684c20.619 0 32.697 10.761 32.697 25.285 0 17.684-13.433 24.645-33.149 24.645-8.955 0-14.11-0.677-17.233-1.355v-48.576zM263.309 723.669c3.8-0.677 9.407-0.865 16.33-0.865 20.168 0 38.755 7.375 38.755 29.311 0 20.582-17.684 29.123-38.981 29.123h-16.104v-57.568zM434.998 601.308h-419.759c-8.428 0-15.239 6.81-15.239 15.239s6.81 15.239 15.239 15.239h419.759c8.428 0 15.239-6.81 15.239-15.239s-6.848-15.239-15.239-15.239zM506.638-64c-127.553 0-231.289 103.773-231.289 231.289s103.773 231.289 231.289 231.289c127.516 0 231.251-103.773 231.251-231.289s-103.736-231.289-231.251-231.289zM506.638 368.138c-110.734 0-200.849-90.077-200.849-200.812s90.115-200.812 200.849-200.812c110.697 0 200.774 90.077 200.774 200.812s-90.077 200.812-200.774 200.812zM572.635 74.728c-4.289 0-8.579 1.844-11.589 5.381l-132.031 154.682c-5.493 6.396-4.703 16.029 1.693 21.447 6.396 5.493 15.991 4.703 21.447-1.693l132.031-154.682c5.493-6.396 4.703-16.029-1.693-21.447-2.86-2.483-6.359-3.687-9.858-3.687zM440.604 74.728c-3.499 0-7.036 1.204-9.896 3.687-6.396 5.456-7.149 15.051-1.693 21.447l131.993 154.682c5.493 6.434 15.013 7.187 21.447 1.693 6.396-5.456 7.149-15.051 1.693-21.447l-131.993-154.682c-2.972-3.537-7.262-5.381-11.551-5.381z" />
<glyph unicode="&#xe908;" glyph-name="hammer-arrow-left" horiz-adv-x="1741" d="M1462.229 476.901c-4.048 0-8.095 1.086-11.699 3.406l-228.296 146.504c-4.837 3.11-8.243 7.997-9.428 13.624-1.234 5.627-0.197 11.501 2.962 16.339l90.479 140.976c6.516 10.070 19.942 12.933 29.913 6.516l228.296-146.455c4.837-3.11 8.243-7.997 9.428-13.624 1.234-5.627 0.197-11.501-2.962-16.339l-90.479-140.976c-4.146-6.466-11.057-9.971-18.214-9.971zM1263.846 651.541l191.818-123.058 67.082 104.547-191.818 123.058-67.082-104.547zM1199.677 569.898c-2.616 0-5.232 0.444-7.75 1.431l-131.992 50.694c-6.071 2.32-10.81 7.256-12.834 13.476s-1.185 12.982 2.369 18.461l189.893 296.069c3.505 5.479 9.28 9.132 15.746 9.823 6.417 0.691 12.982-1.481 17.573-6.022l101.141-98.821c7.355-7.207 8.688-18.51 3.060-27.198l-159.042-247.942c-3.998-6.368-11.008-9.971-18.165-9.971zM1100.263 652.923l90.677-34.849 139.989 218.226-69.451 67.872-161.214-251.249zM1529.114 324.572c-5.627 0-11.106 2.221-15.154 6.22l-101.141 98.821c-7.355 7.207-8.688 18.51-3.060 27.198l159.042 247.892c5.479 8.688 16.339 12.242 25.964 8.54l132.041-50.694c6.071-2.32 10.81-7.256 12.834-13.476s1.135-12.982-2.369-18.461l-189.942-296.069c-3.505-5.479-9.28-9.082-15.746-9.823-0.839-0.099-1.678-0.148-2.468-0.148zM1455.714 448.271l69.501-67.921 161.214 251.249-90.726 34.849-139.989-218.177zM998.48-64.049c-17.326 0-34.158 4.936-49.016 14.463-20.386 13.081-34.553 33.368-39.785 57.21-5.232 23.891-0.889 48.325 12.291 68.908l381.316 525.55c7.059 9.675 20.584 11.797 30.258 4.837 9.675-7.059 11.847-20.584 4.837-30.258l-380.625-524.562c-6.22-9.724-8.49-22.558-5.726-35.195 2.764-12.488 10.168-23.2 20.83-29.962 10.761-6.911 23.397-9.28 36.132-6.466 12.538 2.764 23.249 10.168 30.061 20.88l317.492 563.558c5.923 10.415 19.152 14.167 29.567 8.243 10.415-5.874 14.117-19.103 8.243-29.518l-318.084-564.594c-13.722-21.522-34.109-35.688-58-40.871-6.664-1.481-13.278-2.221-19.794-2.221zM363.2 102.051c-200.259 0-363.2 162.991-363.2 363.299 0 200.259 162.942 363.2 363.2 363.2s363.2-162.942 363.2-363.2c0-200.308-162.942-363.299-363.2-363.299zM363.2 785.162c-176.368 0-319.861-143.493-319.861-319.861s143.493-319.861 319.861-319.861 319.861 143.493 319.861 319.861-143.493 319.861-319.861 319.861zM322.329 429.958c-11.945 0-21.67 9.675-21.67 21.67 0 11.945 9.675 21.67 21.67 21.67l260.282 0.049c11.945 0 21.67-9.675 21.67-21.67 0-11.945-9.675-21.67-21.67-21.67l-260.282-0.049zM399.728 354.534c-4.985 0-9.971 1.678-14.019 5.134l-88.85 75.375c-4.837 4.097-7.651 10.168-7.651 16.536s2.814 12.39 7.651 16.487l88.85 75.473c9.132 7.75 22.756 6.614 30.555-2.468 7.75-9.132 6.614-22.805-2.468-30.555l-69.402-58.937 69.402-58.839c9.132-7.75 10.267-21.423 2.517-30.555-4.344-5.035-10.465-7.651-16.585-7.651zM213.537 287.354c-11.995 0-21.67 9.724-21.67 21.67v285.259c0 11.995 9.675 21.67 21.67 21.67s21.67-9.675 21.67-21.67v-285.21c0-11.995-9.724-21.719-21.67-21.719z" />
<glyph unicode="&#xe909;" glyph-name="hammer-arrow-right-left" horiz-adv-x="1746" d="M1467.955 476.901c-4.097 0-8.194 1.185-11.699 3.406l-228.296 146.504c-10.070 6.466-12.982 19.893-6.516 29.913l90.43 140.976c6.466 10.168 19.893 12.933 29.913 6.565l228.296-146.455c10.070-6.466 12.982-19.843 6.516-29.913l-90.43-140.976c-3.060-4.837-7.997-8.243-13.574-9.477-1.53-0.395-3.060-0.543-4.64-0.543zM1269.622 651.541l191.818-123.058 67.033 104.547-191.818 123.058-67.033-104.547zM1205.353 569.898c-2.616 0-5.232 0.444-7.75 1.431l-131.992 50.694c-6.071 2.32-10.81 7.256-12.834 13.476s-1.135 12.982 2.369 18.461l189.893 296.069c3.505 5.479 9.28 9.132 15.746 9.823 6.417 0.691 12.982-1.481 17.573-6.022l101.191-98.821c7.355-7.207 8.688-18.51 3.060-27.198l-159.091-247.942c-3.998-6.368-11.008-9.971-18.165-9.971zM1105.94 652.923l90.677-34.849 140.038 218.226-69.501 67.872-161.214-251.249zM1534.84 324.572c-5.627 0-11.106 2.221-15.154 6.17l-101.191 98.871c-7.355 7.207-8.688 18.51-3.060 27.198l159.091 247.892c5.479 8.638 16.388 12.192 25.964 8.49l132.041-50.694c6.071-2.32 10.81-7.256 12.834-13.476s1.135-12.982-2.369-18.461l-189.942-296.069c-3.505-5.43-9.28-9.082-15.746-9.823-0.839-0.049-1.678-0.099-2.468-0.099zM1461.39 448.271l69.55-67.921 161.214 251.249-90.726 34.849-140.038-218.177zM1004.157-64.049c-17.326 0-34.158 4.936-49.016 14.463-20.436 13.081-34.553 33.467-39.785 57.308-5.183 23.891-0.889 48.325 12.291 68.81l381.267 525.55c7.059 9.675 20.584 11.797 30.258 4.837 9.675-7.059 11.847-20.584 4.837-30.258l-380.576-524.562c-6.17-9.675-8.49-22.509-5.726-35.096s10.168-23.249 20.88-30.061c10.662-6.911 23.397-9.28 36.083-6.466 12.538 2.764 23.249 10.168 30.061 20.88l317.541 563.558c5.874 10.415 19.152 14.167 29.567 8.243 10.415-5.874 14.117-19.103 8.243-29.518l-318.134-564.594c-13.722-21.522-34.109-35.688-58-40.871-6.664-1.481-13.229-2.221-19.794-2.221zM363.2 102.051c-200.259 0-363.2 162.991-363.2 363.299 0 200.259 162.942 363.2 363.2 363.2s363.2-162.942 363.2-363.2c0-200.308-162.942-363.299-363.2-363.299zM363.2 785.162c-176.368 0-319.861-143.493-319.861-319.861s143.493-319.861 319.861-319.861 319.861 143.493 319.861 319.861-143.493 319.861-319.861 319.861zM487.591 548.228h-260.282c-11.995 0-21.67 9.675-21.67 21.67s9.675 21.67 21.67 21.67h260.282c11.995 0 21.67-9.675 21.67-21.67s-9.675-21.67-21.67-21.67zM410.242 472.804c-6.121 0-12.242 2.616-16.487 7.651-7.799 9.132-6.664 22.805 2.419 30.505l69.402 58.937-69.402 58.888c-9.082 7.7-10.218 21.423-2.468 30.555 7.75 9.082 21.423 10.168 30.555 2.468l88.85-75.375c4.837-4.097 7.651-10.168 7.651-16.536s-2.814-12.39-7.651-16.487l-88.85-75.473c-4.097-3.455-9.082-5.134-14.019-5.134zM499.043 340.22h-260.331c-11.995 0-21.67 9.724-21.67 21.67s9.675 21.67 21.67 21.67h260.331c11.995 0 21.67-9.724 21.67-21.67s-9.675-21.67-21.67-21.67zM316.159 264.845c-4.985 0-9.971 1.678-14.019 5.134l-88.85 75.325c-4.837 4.146-7.651 10.168-7.651 16.536s2.814 12.39 7.651 16.536l88.85 75.473c9.082 7.75 22.756 6.614 30.555-2.468 7.75-9.132 6.664-22.805-2.468-30.555l-69.402-58.937 69.402-58.789c9.132-7.75 10.267-21.423 2.517-30.555-4.344-5.084-10.415-7.7-16.585-7.7z" />
<glyph unicode="&#xe90a;" glyph-name="flag2" horiz-adv-x="679" d="M75.11-64.1c-41.461 0-75.11 33.649-75.11 75.11v873.88c0 41.561 33.649 75.11 75.11 75.11s75.11-33.549 75.11-75.11v-873.88c0-41.461-33.549-75.11-75.11-75.11zM606.288 372.94c-0.501-0.1-1.302-0.1-2.003 0h-529.175c-41.461 0-75.11 33.549-75.11 75.010v436.94c0 41.561 33.649 75.11 75.11 75.11h529.175c23.935 0 46.468-11.317 60.689-30.645 14.121-19.328 18.227-44.265 10.916-67.098l-61.891-195.787 56.983-180.264c6.61-11.216 10.415-24.236 10.415-38.156 0-41.561-33.549-75.11-75.11-75.11zM150.22 523.060h351.515l-38.156 120.777c-4.707 14.722-4.707 30.545 0 45.366l38.156 120.577h-351.515v-286.72z" />
<glyph unicode="&#xe90b;" glyph-name="dots" horiz-adv-x="4562" d="M1024 448c0-282.589-229.084-511.673-511.673-511.673s-511.673 229.084-511.673 511.673c0 282.589 229.084 511.673 511.673 511.673s511.673-229.084 511.673-511.673zM2792.638 448c0-282.589-229.084-511.673-511.673-511.673s-511.673 229.084-511.673 511.673c0 282.589 229.084 511.673 511.673 511.673s511.673-229.084 511.673-511.673zM4561.93 448c0-282.589-229.084-511.673-511.673-511.673s-511.673 229.084-511.673 511.673c0 282.589 229.084 511.673 511.673 511.673s511.673-229.084 511.673-511.673z" />
<glyph unicode="&#xe90c;" glyph-name="hammer2" horiz-adv-x="1027" d="M746.555 231.827c-14.421 0-28.918 5.529-39.827 16.663l-393.863 398.571c-10.461 10.611-16.29 24.883-16.14 39.827s6.127 29.142 16.738 39.528l180.68 177.765c22.193 21.67 57.536 21.445 79.206-0.598l393.789-398.72c10.536-10.611 16.29-24.883 16.215-39.752-0.149-14.87-6.127-29.142-16.738-39.528l-180.68-177.691c-10.984-10.76-25.182-16.065-39.379-16.065zM432.121 685.917l315.031-318.842 100.801 99.082-315.031 318.917-100.801-99.157zM309.427 588.255c-14.496 0-29.067 5.604-40.051 16.813-21.67 22.118-21.296 57.611 0.822 79.281l265.041 259.661c22.118 21.52 57.611 21.221 79.281-0.897 21.595-22.118 21.221-57.611-0.897-79.281l-264.967-259.587c-10.91-10.685-25.032-15.991-39.229-15.991zM705.607 192.075c-14.496 0-29.067 5.604-40.051 16.813-21.595 22.043-21.221 57.611 0.822 79.281l264.967 259.587c22.267 21.67 57.611 21.296 79.356-0.822 21.595-22.118 21.221-57.611-0.822-79.281l-264.967-259.661c-10.984-10.611-25.107-15.916-39.304-15.916zM56.042-64.075c-14.347 0-28.694 5.455-39.603 16.439-21.894 21.894-21.894 57.387 0 79.281l493.17 493.17c21.894 21.894 57.387 21.894 79.281 0s21.894-57.387 0-79.281l-493.17-493.17c-11.059-10.984-25.406-16.439-39.678-16.439z" />
<glyph unicode="&#xe90d;" glyph-name="loading" horiz-adv-x="895" d="M382.819 672.327c-30.777 0-55.73 24.953-55.73 55.73v176.214c-0.039 30.777 24.953 55.73 55.73 55.73s55.73-24.953 55.73-55.73v-176.214c0-30.777-24.953-55.73-55.73-55.73zM382.819-64c-30.777 0-55.73 24.953-55.73 55.73v176.214c0 30.777 24.953 55.73 55.73 55.73s55.73-24.953 55.73-55.73v-176.214c0-30.777-24.953-55.73-55.73-55.73zM839.070 392.251h-176.214c-30.777 0-55.73 24.953-55.73 55.73s24.953 55.73 55.73 55.73h176.214c30.777 0 55.73-24.953 55.73-55.73s-24.953-55.73-55.73-55.73zM580.785 590.217c-14.27 0-28.54 5.438-39.416 16.314-21.752 21.752-21.752 57.041 0 78.832l124.572 124.611c21.752 21.752 57.080 21.752 78.87 0s21.752-57.041 0-78.832l-124.572-124.611c-10.915-10.876-25.184-16.314-39.454-16.314zM705.627 68.98c-14.347 0-28.694 5.515-39.57 16.468l-125.498 126.539c-21.675 21.868-21.559 57.157 0.347 78.832 21.791 21.675 57.157 21.521 78.832-0.309l125.498-126.539c21.675-21.868 21.559-57.157-0.347-78.832-10.876-10.76-25.069-16.16-39.261-16.16zM181.228 597.699c-14.347 0-28.694 5.515-39.57 16.468l-125.498 126.539c-21.713 21.868-21.559 57.195 0.347 78.87 21.791 21.636 57.157 21.521 78.832-0.309l125.498-126.539c21.675-21.868 21.559-57.157-0.347-78.832-10.837-10.799-25.069-16.198-39.261-16.198z" />
<glyph unicode="&#xe90e;" glyph-name="user2" horiz-adv-x="941" d="M470.237 343.309c-170.013 0-308.367 138.31-308.367 308.324 0 170.057 138.354 308.367 308.367 308.367s308.367-138.31 308.367-308.367c0-170.013-138.354-308.324-308.367-308.324zM470.237 834.145c-100.597 0-182.468-81.871-182.468-182.468s81.871-182.425 182.468-182.425c100.641 0 182.468 81.828 182.468 182.425s-81.871 182.468-182.468 182.468zM878.417-64c-0.174-0.044-0.523-0.044-0.871 0h-814.619c-34.752 0-62.928 28.176-62.928 62.928 0 259.288 210.949 470.237 470.281 470.237 255.499 0 464.097-204.852 470.106-458.958 0.697-3.658 1.002-7.447 1.002-11.279 0-34.752-28.176-62.928-62.971-62.928zM131.647 61.855h677.18c-29.657 159.91-170.188 281.411-338.546 281.411-168.402 0-308.933-121.5-338.633-281.411z" />
<glyph unicode="&#xe90f;" glyph-name="exclamation-circle" d="M512.053-64c-282.349 0-512.053 229.704-512.053 512s229.704 512 512.053 512c282.296 0 512.053-229.704 512.053-512-0.053-282.296-229.757-512-512.053-512zM512.053 913.358c-256.637 0-465.411-208.774-465.411-465.358s208.774-465.305 465.411-465.305c256.584 0 465.358 208.72 465.358 465.305s-208.774 465.358-465.358 465.358zM462.277 264.46c0 22.949 15.937 39.524 37.558 39.524 22.949 0 37.611-16.574 37.611-39.524 0-22.312-14.662-39.47-37.611-39.47-22.259 0-37.558 17.159-37.558 39.47zM478.214 355.619l-8.925 305.776h61.145l-8.925-305.776h-43.295z" />
<glyph unicode="&#xe910;" glyph-name="user-network" horiz-adv-x="903" d="M126.48 46.548c-69.755 0-126.48 56.726-126.48 126.48s56.726 126.48 126.48 126.48c69.755 0 126.48-56.726 126.48-126.48s-56.726-126.48-126.48-126.48zM126.48 267.607c-52.189 0-94.615-42.426-94.615-94.579s42.426-94.579 94.615-94.579 94.615 42.426 94.615 94.579-42.463 94.579-94.615 94.579zM451.482-64.036c-69.718 0-126.48 56.762-126.48 126.517s56.726 126.48 126.48 126.48c69.755 0 126.48-56.726 126.48-126.48s-56.726-126.517-126.48-126.517zM451.482 157.059c-52.189 0-94.615-42.426-94.615-94.579s42.426-94.615 94.615-94.615 94.579 42.463 94.579 94.615-42.39 94.579-94.579 94.579zM776.52 46.548c-69.755 0-126.517 56.726-126.517 126.48s56.762 126.48 126.517 126.48 126.48-56.726 126.48-126.48-56.726-126.48-126.48-126.48zM776.52 267.607c-52.189 0-94.615-42.426-94.615-94.579s42.463-94.579 94.615-94.579 94.579 42.426 94.579 94.579-42.39 94.579-94.579 94.579zM697.329 390.603c-0.181 0-0.436 0-0.726 0h-490.206c-8.819 0-15.933 7.15-15.933 15.933 0 143.937 117.117 261.054 261.017 261.054 142.304 0 258.368-114.467 260.981-256.118 0.508-1.561 0.762-3.23 0.762-4.936 0.036-8.783-7.077-15.933-15.896-15.933zM222.874 422.504h457.252c-8.202 118.968-107.608 213.22-228.644 213.22-121 0-220.406-94.252-228.608-213.22zM451.482 637.539c-88.881 0-161.176 72.331-161.176 161.212 0 88.917 72.295 161.249 161.176 161.249s161.212-72.331 161.212-161.249c0.036-88.881-72.295-161.212-161.212-161.212zM451.482 928.135c-71.315 0-129.311-58.032-129.311-129.384 0-71.315 58.032-129.347 129.311-129.347s129.311 58.032 129.311 129.347c0.036 71.352-57.996 129.384-129.311 129.384zM451.482 157.059c-8.783 0-15.933 7.15-15.933 15.933v233.544c0 8.783 7.15 15.933 15.933 15.933s15.933-7.15 15.933-15.933v-233.544c0.036-8.747-7.113-15.933-15.933-15.933zM178.379 267.607c-3.883 0-7.767 1.415-10.815 4.246-6.46 5.988-6.823 16.041-0.871 22.502l113.85 122.996c5.952 6.496 16.041 6.859 22.538 0.871 6.46-5.988 6.823-16.041 0.871-22.502l-113.85-122.996c-3.157-3.375-7.44-5.117-11.723-5.117zM722.879 267.607c-4.283 0-8.529 1.742-11.686 5.154l-113.85 122.996c-5.988 6.46-5.589 16.513 0.871 22.502 6.424 5.952 16.513 5.553 22.502-0.871l113.85-122.996c5.988-6.46 5.589-16.513-0.871-22.502-3.049-2.867-6.968-4.283-10.815-4.283z" />
<glyph unicode="&#xe911;" glyph-name="filter" horiz-adv-x="938" d="M93.283-64.056c-12.445 0-22.501 10.112-22.501 22.501v979.053c0 12.445 10.056 22.501 22.501 22.501s22.501-10.056 22.501-22.501v-979.053c-0.056-12.39-10.112-22.501-22.501-22.501zM186.566 545.978c0-51.558-41.78-93.283-93.338-93.283-51.447 0-93.227 41.724-93.227 93.283 0 51.503 41.78 93.283 93.227 93.283 51.558 0 93.338-41.78 93.338-93.283zM844.824-64.056c-12.445 0-22.501 10.112-22.501 22.501v979.053c0 12.445 10.056 22.501 22.501 22.501s22.501-10.056 22.501-22.501v-979.053c0-12.39-10.056-22.501-22.501-22.501zM938.162 279.463c0-51.503-41.78-93.283-93.338-93.283-51.503 0-93.283 41.78-93.283 93.283 0 51.614 41.78 93.338 93.283 93.338 51.558 0 93.338-41.724 93.338-93.338zM469.025-64.056c-12.445 0-22.501 10.112-22.501 22.501v979.053c0 12.445 10.112 22.501 22.501 22.501s22.501-10.056 22.501-22.501v-979.053c0.056-12.39-10.056-22.501-22.501-22.501zM562.364 639.26c0-51.503-41.78-93.283-93.338-93.283-51.447 0-93.227 41.78-93.227 93.283 0 51.558 41.78 93.338 93.227 93.338 51.558 0 93.338-41.78 93.338-93.338z" />
<glyph unicode="&#xe912;" glyph-name="eye" horiz-adv-x="1837" d="M34.59 538.455c-8.746 0-17.571 3.309-24.268 9.928-13.631 13.395-13.789 35.299-0.394 48.931 14.656 14.813 363.553 362.765 908.331 362.765 544.699 0 893.754-347.952 908.252-362.765 13.395-13.631 13.237-35.457-0.315-48.931-13.631-13.316-35.378-13.237-48.931 0.315-3.388 3.388-344.17 342.121-859.006 342.121-516.097 0-855.697-338.733-859.006-342.121-6.776-6.776-15.759-10.243-24.662-10.243zM918.18-64.079c-544.699 0-893.676 347.873-908.252 362.686-13.395 13.631-13.237 35.457 0.315 48.931 13.552 13.316 35.536 13.159 48.931-0.315 3.388-3.467 344.17-342.042 859.006-342.042 516.176 0 855.697 338.576 859.085 341.964 13.552 13.71 35.378 13.868 48.852 0.394 13.631-13.395 13.789-35.299 0.394-48.852-14.498-14.892-363.474-362.765-908.331-362.765zM928.817 76.804c-204.705 0-371.275 166.569-371.275 371.196 0 204.705 166.569 371.196 371.275 371.196s371.275-166.491 371.275-371.196c0-204.627-166.569-371.196-371.275-371.196zM928.817 750.015c-166.569 0-302.094-135.525-302.094-302.015 0-166.569 135.525-302.015 302.094-302.015s302.015 135.446 302.015 302.015c0 166.569-135.446 302.015-302.015 302.015zM928.817 308.851c-76.745 0-139.149 62.483-139.149 139.149 0 76.745 62.404 139.149 139.149 139.149s139.228-62.404 139.228-139.149c0-76.666-62.483-139.149-139.228-139.149zM928.817 518.047c-38.53 0-69.969-31.36-69.969-69.969 0-38.53 31.439-69.89 69.969-69.89s69.969 31.36 69.969 69.89c0 38.53-31.439 69.969-69.969 69.969z" />
<glyph unicode="&#xe913;" glyph-name="price-tag-plus" horiz-adv-x="968" d="M413.005-64.047c-5.253 0-10.554 2.017-14.588 6.051l-392.461 392.414c-8.021 8.068-8.021 21.061 0 29.128 8.068 8.068 21.061 8.068 29.128 0l377.92-377.873 505.222 505.269-377.873 377.826c-8.021 8.021-8.021 21.108 0 29.128 8.068 8.021 21.061 8.021 29.128 0l392.414-392.414c3.893-3.846 6.098-9.1 6.098-14.541s-2.205-10.695-6.051-14.588l-534.351-534.351c-4.034-4.034-9.334-6.051-14.588-6.051zM20.545 328.414c-5.347 0-10.695 2.111-14.728 6.238-7.927 8.162-7.786 21.155 0.375 29.128l212.952 207.746c8.162 7.927 21.155 7.739 29.128-0.375 7.927-8.162 7.786-21.201-0.375-29.128l-212.952-207.746c-3.987-3.893-9.194-5.863-14.4-5.863zM410.754 722.235c-5.347 0-10.741 2.064-14.728 6.192-7.974 8.162-7.786 21.201 0.328 29.128l144.188 140.53c8.209 7.88 21.201 7.786 29.128-0.375s7.786-21.201-0.375-29.128l-144.188-140.53c-3.987-3.893-9.194-5.816-14.353-5.816zM632.853 513.316c-5.253 0-10.554 2.017-14.588 6.004-51.456 51.456-23.922 159.573 62.619 246.208 86.635 86.588 194.659 114.122 246.208 62.619 51.456-51.503 23.969-159.667-62.619-246.255-8.068-8.021-21.061-8.021-29.128 0-8.021 8.021-8.021 21.061 0 29.128 73.83 73.83 92.264 158.354 62.619 187.998-29.644 29.691-114.122 11.21-187.951-62.619-74.909-74.955-92.827-157.697-62.619-187.951 8.021-8.021 8.021-21.108 0-29.128-3.987-3.987-9.287-6.004-14.541-6.004zM643.313 333.198c-5.253 0-10.554 2.017-14.588 6.051l-227.681 227.681c-8.021 8.021-8.021 21.108 0 29.128 8.068 8.021 21.061 8.021 29.128 0l227.681-227.681c8.021-8.068 8.021-21.061 0-29.128-4.034-4.034-9.287-6.051-14.541-6.051zM522.859 212.744c-5.253 0-10.554 2.017-14.588 6.051l-227.681 227.681c-8.021 8.021-8.021 21.108 0 29.128 8.068 8.021 21.061 8.021 29.128 0l227.681-227.681c8.021-8.068 8.021-21.061 0-29.128-3.987-4.034-9.24-6.051-14.541-6.051zM217.877 536.488c-116.748 0-211.78 94.984-211.78 211.78s94.984 211.733 211.78 211.733 211.733-94.984 211.733-211.733-94.984-211.78-211.733-211.78zM217.877 918.817c-94.046 0-170.596-76.503-170.596-170.549s76.503-170.596 170.596-170.596c94.046 0 170.549 76.503 170.549 170.596 0 94.046-76.55 170.549-170.549 170.549zM217.877 636.772c-11.398 0-20.592 9.194-20.592 20.592v181.76c0 11.398 9.194 20.592 20.592 20.592s20.592-9.194 20.592-20.592v-181.76c-0.047-11.351-9.24-20.592-20.592-20.592zM308.734 727.676h-181.807c-11.398 0-20.592 9.194-20.592 20.592s9.194 20.592 20.592 20.592h181.807c11.398 0 20.592-9.194 20.592-20.592s-9.194-20.592-20.592-20.592z" />
<glyph unicode="&#xe914;" glyph-name="hammer" horiz-adv-x="901" d="M652.623 537.273c-2.746 0.257-5.577 1.115-8.065 2.66l-201.282 122.906c-4.247 2.574-7.293 6.821-8.451 11.626s-0.386 9.953 2.231 14.242l75.845 124.236c5.405 8.837 17.117 11.669 25.911 6.22l201.282-122.906c4.247-2.574 7.336-6.778 8.451-11.626 1.201-4.848 0.386-9.995-2.231-14.242l-75.845-124.193c-3.904-6.349-10.939-9.609-17.846-8.923zM479.011 685.146l169.108-103.258 56.284 92.061-169.194 103.258-56.198-92.061zM422.513 613.033c-1.501 0.129-3.003 0.515-4.504 1.030l-115.784 41.612c-5.362 1.93-9.524 6.092-11.411 11.454s-1.244 11.24 1.716 16.087l159.241 260.783c2.917 4.805 7.936 8.065 13.47 8.837 5.62 0.772 11.282-1.072 15.358-4.89l89.916-83.953c6.521-6.092 7.893-15.958 3.217-23.594l-133.33-218.442c-3.818-6.22-10.853-9.609-17.889-8.923zM336.672 683.301l79.578-28.614 117.286 192.231-61.775 57.699-135.089-221.316zM713.668 406.216c-4.075 0.386-8.065 2.102-11.068 4.976l-89.873 83.911c-6.564 6.092-7.936 15.916-3.217 23.594l133.33 218.442c4.633 7.636 14.028 10.939 22.393 7.893l115.699-41.569c5.362-1.93 9.566-6.135 11.411-11.497 1.93-5.362 1.244-11.24-1.673-16.087l-159.155-260.783c-3.003-4.805-7.979-8.065-13.513-8.837-1.459-0.214-2.96-0.257-4.333-0.043zM649.663 512.177l61.732-57.699 135.132 221.316-79.535 28.614-117.329-192.231zM253.061 58.777c-11.54 1.115-23.037 4.805-33.59 11.24-18.018 11.068-30.716 28.442-35.692 49.119-4.976 20.592-1.673 41.955 9.309 59.93l321.056 463.867c5.92 8.58 17.674 10.639 26.168 4.719 8.537-5.877 10.682-17.632 4.762-26.211l-320.456-462.966c-5.191-8.537-6.907-19.648-4.333-30.501 2.66-10.939 9.309-20.034 18.747-25.868 19.648-11.883 45.301-5.748 57.27 13.856l264.773 495.613c4.848 9.137 16.43 12.655 25.482 7.722 9.223-4.89 12.698-16.302 7.765-25.482l-265.245-496.556c-16.731-27.37-46.674-41.312-76.017-38.48z" />
<glyph unicode="&#xe915;" glyph-name="plus-circle" d="M511.975-64.050c-282.291 0-511.975 229.684-511.975 512.025s229.684 512.025 511.975 512.025c282.341 0 512.025-229.684 512.025-512.025s-229.684-512.025-512.025-512.025zM511.975 919.379c-259.924 0-471.354-211.48-471.354-471.404s211.48-471.404 471.354-471.404 471.354 211.48 471.354 471.404-211.43 471.404-471.354 471.404zM511.975 257.608c-11.233 0-20.31 9.127-20.31 20.31v340.163c0 11.233 9.077 20.31 20.31 20.31s20.31-9.077 20.31-20.31v-340.163c0-11.233-9.077-20.31-20.31-20.31zM682.132 427.664h-340.213c-11.233 0-20.31 9.077-20.31 20.31s9.077 20.31 20.31 20.31h340.213c11.233 0 20.31-9.077 20.31-20.31s-9.127-20.31-20.31-20.31z" />
<glyph unicode="&#xe916;" glyph-name="clock2" d="M512-64c-282.264 0-512 229.661-512 512s229.736 512 512 512c282.264 0 511.925-229.736 511.925-512s-229.587-512-511.925-512zM512 848.079c-220.558 0-400.079-179.446-400.079-400.079s179.521-400.079 400.079-400.079c220.558 0 400.005 179.446 400.005 400.079 0.075 220.633-179.446 400.079-400.005 400.079zM709.577 392.040h-197.652c-30.89 0-55.96 25.070-55.96 55.96v243.241c0 30.89 25.070 55.96 55.96 55.96s55.96-25.070 55.96-55.96v-187.281h141.692c30.89 0 55.96-25.070 55.96-55.96s-25.070-55.96-55.96-55.96z" />
<glyph unicode="&#xe917;" glyph-name="times" horiz-adv-x="870" d="M82.113-64c-18.284 0-36.786 6.131-52.005 18.612-35.144 28.794-40.29 80.58-11.496 115.615l705.512 859.775c28.904 35.035 80.689 40.071 115.615 11.386 35.035-28.794 40.18-80.47 11.386-115.505l-705.512-859.775c-16.204-19.817-39.852-30.108-63.5-30.108zM787.734-64c-23.758 0-47.297 10.291-63.5 29.999l-705.622 859.775c-28.794 35.035-23.648 86.82 11.386 115.615 35.144 28.685 86.82 23.648 115.615-11.386l705.731-859.775c28.794-35.035 23.648-86.82-11.386-115.615-15.437-12.481-33.83-18.612-52.224-18.612z" />
<glyph unicode="&#xe918;" glyph-name="clock" d="M512.025-64c-282.291 0-511.975 229.684-511.975 512.025s229.684 511.975 511.975 511.975c282.341 0 512.025-229.684 512.025-512.025s-229.684-511.975-512.025-511.975zM512.025 919.429c-259.924 0-471.354-211.48-471.354-471.404s211.48-471.354 471.354-471.354 471.354 211.48 471.354 471.354c0 259.924-211.43 471.404-471.354 471.404zM666.134 427.664h-154.109c-11.233 0-20.31 9.127-20.31 20.31v298.339c0 11.233 9.077 20.31 20.31 20.31s20.31-9.077 20.31-20.31v-277.978h133.799c11.233 0 20.31-9.077 20.31-20.31s-9.077-20.361-20.31-20.361z" />
<glyph unicode="&#xe919;" glyph-name="pulse" horiz-adv-x="1043" d="M685.052-64c-9.661 0-18.095 6.543-20.497 15.948l-225.573 898.102-108.007-451.965c-2.249-9.559-10.785-16.204-20.548-16.204h-289.263c-11.705-0.051-21.162 9.405-21.162 21.060s9.456 21.111 21.162 21.111h272.6l124.109 519.693c2.3 9.508 10.837 16.357 20.6 16.255 9.661 0 18.146-6.594 20.497-15.999l224.449-893.297 75.907 356.685c2.045 9.763 10.683 16.715 20.651 16.715h241.828c11.705 0 21.111-9.456 21.111-21.111s-9.456-21.111-21.111-21.111h-224.704l-91.344-429.116c-2.045-9.61-10.428-16.561-20.242-16.715-0.204-0.051-0.307-0.051-0.46-0.051z" />
<glyph unicode="&#xe91a;" glyph-name="user-question" horiz-adv-x="939" d="M912.181-64c-0.263 0-0.684 0-1.052 0h-883.503c-15.26 0-27.626 12.366-27.626 27.626 0 258.842 210.588 469.43 469.482 469.43 256.158 0 465.062-206.379 469.272-461.589 0.737-2.473 1.105-5.104 1.105-7.788 0-15.313-12.366-27.679-27.679-27.679zM56.199-8.748h826.356c-14.26 215.535-194.065 386.499-413.126 386.499s-398.918-170.965-413.231-386.499zM469.43 381.014c-159.651 0-289.519 129.868-289.519 289.519s129.868 289.467 289.519 289.467 289.519-129.868 289.519-289.467-129.868-289.519-289.519-289.519zM469.43 904.696c-129.184 0-234.268-105.084-234.268-234.215s105.084-234.215 234.268-234.215c129.131 0 234.215 105.084 234.215 234.215s-105.084 234.215-234.215 234.215zM486.163 617.649h-57.041l-0.789 9.209c0 44.886 0.842 64.934 45.675 84.246l16.733 7.104c14.681 7.998 15.523 13.839 15.523 23.048 0 12.629-12.155 22.627-29.731 22.627-17.628 0-29.731-11.313-29.731-28.889h-58.725c0 53.568 36.045 87.561 88.455 87.561 52.358 0 88.403-31.415 88.403-81.72 0-40.571-23.469-69.091-56.146-79.194-17.154-4.999-21.838-15.050-21.838-34.782l-0.789-9.209zM458.537 596.338c19.68 0 36.361-14.629 36.361-34.782 0-20.575-16.681-35.203-36.361-35.203-19.733 0-36.098 14.629-36.098 35.203 0 20.154 16.365 34.782 36.098 34.782z" />
<glyph unicode="&#xe91d;" glyph-name="check-circle" d="M414.413 275.934c-5.95 0-11.953 2.284-16.521 6.853l-102.156 102.156c-9.084 9.137-9.084 23.852 0 32.989 9.137 9.084 23.852 9.084 32.989 0l102.156-102.156c9.084-9.137 9.084-23.852 0-32.989-4.569-4.569-10.518-6.853-16.468-6.853zM414.36 275.934c-5.95 0-11.953 2.284-16.521 6.853-9.084 9.137-9.084 23.852 0 32.989l297.489 297.383c9.137 9.084 23.852 9.084 32.989 0 9.084-9.137 9.084-23.905 0-32.989l-297.489-297.383c-4.569-4.569-10.518-6.853-16.468-6.853zM512.053-64c-282.349 0-512.053 229.704-512.053 512s229.704 512 512.053 512c282.296 0 512.053-229.704 512.053-512-0.053-282.296-229.757-512-512.053-512zM512.053 913.358c-256.637 0-465.411-208.774-465.411-465.358s208.774-465.305 465.411-465.305c256.584 0 465.358 208.72 465.358 465.305s-208.774 465.358-465.358 465.358z" />
<glyph unicode="&#xe91e;" glyph-name="hammer-down" horiz-adv-x="1057" d="M690.102 406.745c-6.131 0-12.104 2.431-16.439 6.766l-205.455 205.455c-4.334 4.387-6.819 10.307-6.819 16.439 0 6.184 2.431 12.051 6.766 16.439l126.804 126.751c9.091 9.039 23.733 9.039 32.824 0l205.403-205.455c9.039-9.039 9.039-23.786 0-32.824l-126.698-126.751c-4.334-4.387-10.254-6.819-16.386-6.819zM517.471 635.405l172.631-172.631 93.874 93.927-172.578 172.684-93.927-93.98zM436.494 564.048c-4.387 0-8.827 1.269-12.739 3.806l-126.593 83.356c-5.814 3.806-9.62 10.096-10.307 17.020-0.74 6.924 1.691 13.849 6.66 18.764l266.294 266.188c4.969 4.916 11.576 7.4 18.764 6.66 6.924-0.687 13.161-4.493 16.967-10.307l83.25-126.487c6.079-9.197 4.863-21.354-2.96-29.177l-222.898-223.004c-4.493-4.493-10.413-6.819-16.439-6.819zM346.478 674.308l87.003-57.244 196.205 196.258-57.191 86.897-226.017-225.911zM725.305 232.105c-0.793 0-1.533 0.053-2.379 0.159-6.924 0.687-13.161 4.493-16.967 10.307l-83.303 126.54c-6.079 9.197-4.863 21.354 2.96 29.177l223.004 222.898c7.77 7.77 20.033 8.986 29.177 2.96l126.54-83.25c5.814-3.859 9.62-10.096 10.307-17.020s-1.744-13.849-6.66-18.764l-266.188-266.188c-4.493-4.387-10.36-6.819-16.491-6.819zM671.761 378.784l57.244-86.95 225.911 225.911-86.95 57.191-196.205-196.153zM97.627-54.697c-26.217 0-50.743 10.149-69.137 28.543-38.057 38.11-38.057 100.111 0 138.168l518.739 462.552c9.62 8.51 24.261 7.717 32.771-1.903 8.51-9.567 7.664-24.209-1.903-32.771l-517.735-461.707c-18.976-19.029-18.976-51.641 1.004-71.568 19.24-19.293 53.28-19.293 72.626 0l460.649 516.784c8.563 9.567 23.204 10.36 32.771 1.903 9.567-8.51 10.413-23.204 1.903-32.771l-461.601-517.735c-19.346-19.346-43.924-29.494-70.088-29.494zM933.509-64c-12.791 0-23.204 10.413-23.204 23.204v243.883c0 12.791 10.413 23.204 23.204 23.204s23.204-10.413 23.204-23.204v-243.883c0.053-12.739-10.413-23.204-23.204-23.204zM933.456-64c-6.343 0-12.633 2.643-17.231 7.717l-100.534 111.74c-8.563 9.567-7.77 24.209 1.691 32.771 9.62 8.51 24.209 7.717 32.771-1.691l100.534-111.74c8.563-9.567 7.77-24.209-1.691-32.771-4.44-3.964-9.99-6.026-15.54-6.026zM933.509-64c-5.497 0-11.1 2.009-15.54 5.973-9.514 8.563-10.254 23.204-1.691 32.771l100.587 111.74c8.616 9.461 23.257 10.201 32.771 1.691 9.514-8.563 10.254-23.204 1.691-32.771l-100.587-111.74c-4.599-5.021-10.889-7.664-17.231-7.664z" />
<glyph unicode="&#xe91f;" glyph-name="twitter" horiz-adv-x="1170" d="M1170.301 838.841c-43.311-20.921-89.337-34.428-138.116-40.705 49.697 32.006 87.869 82.4 105.927 142.778-46.504-29.473-97.963-50.541-152.798-62.837-43.604 50.468-106.258 81.923-175.114 81.923-132.611 0-240.080-115.58-240.080-258.542 0-20.077 2.092-39.934 6.056-58.616-199.192 10.314-376.361 113.635-494.841 269.7-20.591-38.062-32.373-82.4-32.373-129.932 0-89.484 42.32-169.058 106.882-214.754-39.457 1.615-76.454 12.626-108.79 32.153 0-1.064 0-2.386 0-3.524 0-125.013 82.73-229.325 192.585-253.477-20.15-5.873-41.402-8.515-63.461-8.515-15.416 0-30.060 1.064-44.889 4.588 30.427-103.064 119.177-177.94 224.224-179.482-82.18-69.664-185.685-110.589-298.182-110.589-19.416 0-38.612 1.101-57.331 3.597 106.221-73.665 232.188-116.608 368.066-116.608 441.584 0 683.205 393.979 683.205 735.545 0 10.901-0.257 21.986-0.771 33.070 46.834 36.924 87.612 82.547 119.801 134.226z" />
<glyph unicode="&#xe920;" glyph-name="fb" horiz-adv-x="476" d="M475.85 628.427h-162.078v106.289c0 39.891 26.443 49.21 45.050 49.21h114.351v175.461l-157.467 0.613c-174.848 0-214.61-130.862-214.61-214.61v-116.963h-101.097v-180.782h101.097v-511.645h212.675v511.645h143.471l18.607 180.782z" />
<glyph unicode="&#xe921;" glyph-name="user" horiz-adv-x="938" d="M915.797-64.053c-0.265 0-0.637 0-1.062 0h-891.427c-12.902 0-23.308 10.459-23.308 23.308 0 258.668 210.407 469.075 469.021 469.075 256.226 0 465.199-206.584 469.021-461.96 0.69-2.283 1.115-4.672 1.115-7.168-0.053-12.795-10.459-23.255-23.361-23.255zM47.253-17.385h843.538c-12.158 222.14-196.656 399.151-421.769 399.151-225.113-0.053-409.611-177.064-421.769-399.151zM469.021 384.952c-158.535 0-287.497 129.015-287.497 287.603 0 158.482 128.962 287.444 287.497 287.444s287.55-128.962 287.55-287.497c0-158.535-129.015-287.55-287.55-287.55zM469.021 913.438c-132.838 0-240.882-108.044-240.882-240.882s108.044-240.935 240.882-240.935 240.882 108.097 240.882 240.935c0 132.785-108.044 240.882-240.882 240.882z" />
<glyph unicode="&#xe922;" glyph-name="magnifier2" d="M582.131 76.316c-118.006 0-228.967 45.954-312.441 129.374-172.179 172.339-172.179 452.65 0 624.882 83.474 83.474 194.435 129.428 312.441 129.428s228.967-45.954 312.441-129.428 129.481-194.382 129.481-312.388c0-118.006-46.007-229.020-129.481-312.495-83.474-83.367-194.435-129.374-312.441-129.374zM582.131 866.599c-93.028 0-180.558-36.24-246.42-102.048-135.726-135.832-135.726-356.9 0-492.786 65.808-65.755 153.285-101.994 246.366-101.994s180.558 36.24 246.313 102.048c65.861 65.808 102.154 153.338 102.154 246.42 0 93.028-36.293 180.505-102.101 246.366-65.755 65.755-153.232 101.994-246.313 101.994zM46.701-64c-11.955 0-23.911 4.537-33.037 13.663-18.253 18.253-18.253 47.822 0 66.075l256.027 256.027c18.253 18.253 47.822 18.253 66.021 0s18.253-47.822 0-66.075l-255.973-256.027c-9.127-9.127-21.082-13.663-33.037-13.663z" />
<glyph unicode="&#xe923;" glyph-name="magnifier" d="M585.502 83.005c-117.089 0-227.189 45.572-310.057 128.44-170.881 170.993-170.881 449.178 0 620.171 82.812 82.812 192.912 128.384 310.057 128.384s227.245-45.572 310.113-128.384c82.812-82.812 128.44-192.968 128.44-310.057s-45.572-227.245-128.44-310.057-193.024-128.496-310.113-128.496zM585.502 910.905c-104.005 0-201.803-40.484-275.333-114.070-151.758-151.813-151.758-398.853 0-550.722 73.53-73.53 171.384-114.070 275.333-114.070 104.005 0 201.803 40.54 275.389 114.070s114.070 171.328 114.070 275.333c0 104.005-40.54 201.803-114.070 275.333s-171.384 114.126-275.389 114.126zM792.673 703.623c-6.263 0-12.581 2.404-17.39 7.157-104.732 104.844-274.998 105.011-379.618 0.671-9.618-9.618-25.107-9.562-34.724 0.056-9.562 9.618-9.506 25.162 0.056 34.724 123.799 123.464 325.211 123.128 449.010-0.727 9.562-9.618 9.562-25.162 0-34.724-4.809-4.753-11.071-7.157-17.334-7.157zM24.547-64.056c-6.263 0-12.581 2.404-17.39 7.213-9.562 9.618-9.562 25.107 0 34.724l268.232 268.288c9.618 9.618 25.107 9.618 34.724 0 9.562-9.618 9.562-25.107 0-34.724l-268.176-268.288c-4.809-4.809-11.127-7.213-17.39-7.213z" />
<glyph unicode="&#xe924;" glyph-name="transactions" horiz-adv-x="970" d="M423.824 89.449c-4.062 0-7.984 1.646-10.891 4.517l-292.962 292.962c-5.988 6.023-5.988 15.723 0 21.746l398.926 398.926c5.743 5.743 16.003 5.743 21.746 0l292.962-292.962c5.988-5.988 5.988-15.758 0-21.746l-398.891-398.926c-2.907-2.871-6.829-4.517-10.891-4.517zM152.609 397.784l271.215-271.215 377.18 377.215-271.215 271.215-377.18-377.215zM587.954 520.452c-3.922 0-7.879 1.506-10.891 4.482-38.415 38.415-17.894 119.167 46.749 183.81 29.73 29.695 64.258 51.302 97.315 60.826 36.174 10.47 66.92 5.498 86.495-14.112 19.575-19.505 24.548-50.216 14.077-86.46-9.525-33.057-31.166-67.655-60.826-97.315-6.023-5.988-15.723-5.988-21.746 0-5.988 6.023-5.988 15.758 0 21.746 26.089 26.089 44.928 55.959 53.052 84.114 7.109 24.618 4.833 45.103-6.303 56.204-11.066 11.066-31.481 13.412-56.204 6.303-28.155-8.124-57.99-26.964-84.079-53.052-55.119-55.119-68.881-118.186-46.749-140.318 5.988-5.988 5.988-15.758 0-21.746-3.012-2.977-6.969-4.482-10.891-4.482zM595.763 386.018c-3.922 0-7.879 1.506-10.891 4.517l-169.978 169.978c-5.988 5.988-5.988 15.758 0 21.746 6.023 5.988 15.723 5.988 21.746 0l169.978-169.978c5.988-6.023 5.988-15.723 0-21.746-3.012-3.012-6.934-4.517-10.856-4.517zM505.837 296.126c-3.922 0-7.879 1.506-10.891 4.517l-169.978 169.978c-5.988 5.988-5.988 15.758 0 21.746 6.023 5.988 15.723 5.988 21.746 0l169.978-169.978c5.988-6.023 5.988-15.723 0-21.746-2.977-3.012-6.899-4.517-10.856-4.517zM14.182 544.3c-7.844 0-14.182 6.373-14.182 14.182 0 197.152 160.383 357.535 357.535 357.535 7.844 0 14.182-6.338 14.182-14.182s-6.338-14.182-14.182-14.182c-181.499 0-329.17-147.671-329.17-329.17 0-7.809-6.373-14.182-14.182-14.182zM305.288 843.67c-4.027 0-8.019 1.716-10.856 5.043-5.043 5.988-4.272 14.953 1.716 19.995l52.247 43.983c5.988 4.973 14.918 4.272 19.995-1.716 5.043-5.988 4.272-14.918-1.716-19.995l-52.247-43.983c-2.661-2.241-5.918-3.327-9.14-3.327zM357.535 887.653c-3.222 0-6.478 1.086-9.14 3.327l-52.247 43.983c-5.988 5.043-6.758 14.007-1.716 19.995 5.043 6.023 14.007 6.758 19.995 1.716l52.247-43.983c5.988-5.043 6.758-14.007 1.716-19.995-2.801-3.327-6.829-5.043-10.856-5.043zM612.082-20.017c-7.844 0-14.182 6.373-14.182 14.182s6.373 14.182 14.182 14.182c181.534 0 329.17 147.671 329.17 329.135 0 7.844 6.373 14.182 14.182 14.182s14.182-6.373 14.182-14.182c0-197.117-160.418-357.5-357.535-357.5zM612.082-20.017c-4.027 0-8.019 1.716-10.856 5.078-5.078 5.988-4.272 14.953 1.716 19.96l52.247 43.983c5.988 5.113 14.953 4.342 19.96-1.716 5.078-5.988 4.272-14.953-1.716-19.96l-52.247-43.983c-2.626-2.276-5.883-3.362-9.105-3.362zM664.329-64c-3.222 0-6.478 1.086-9.14 3.362l-52.247 43.983c-5.988 5.043-6.758 13.972-1.716 19.96 5.043 6.023 13.937 6.794 19.96 1.716l52.247-43.983c5.988-5.043 6.758-13.972 1.716-19.96-2.801-3.362-6.794-5.078-10.821-5.078z" />
<glyph unicode="&#xe925;" glyph-name="check" horiz-adv-x="855" d="M263.486-63.9c-20.831 0-40.76 8.613-55.081 24.035l-188.376 203.298c-28.141 30.445-26.339 77.914 4.106 106.156 30.344 28.141 77.914 26.439 106.156-4.006l119.876-129.39 465.482 786.953c21.031 35.652 66.998 47.57 102.851 26.439 35.652-21.131 47.57-67.198 26.439-102.851l-516.757-873.68c-12.118-20.43-33.048-33.95-56.583-36.453-2.704-0.401-5.408-0.501-8.112-0.501z" />
<glyph unicode="&#xe926;" glyph-name="question" d="M511.975-64c-282.291 0-511.975 229.684-511.975 512.025s229.684 511.975 511.975 511.975c282.341 0 512.075-229.684 512.075-512.025s-229.734-511.975-512.075-511.975zM511.975 919.429c-259.924 0-471.354-211.48-471.354-471.404s211.43-471.354 471.354-471.354c259.974 0 471.404 211.48 471.404 471.354 0 259.924-211.43 471.404-471.404 471.404zM524.362 496.068c22.216 15.647 42.075 29.488 42.075 52.958s-18.004 43.279-57.12 43.279c-36.709 0-63.188-16.85-83.599-42.125l-40.32 45.185c30.691 37.261 76.979 59.477 131.141 59.477 75.776 0 122.114-40.22 122.114-94.431 0-49.899-33.65-73.92-63.74-94.983-22.868-16.85-43.931-31.293-43.931-55.365 0-9.629 5.416-20.461 13.29-27.081l-52.958-17.452c-14.443 13.841-21.665 31.293-21.665 51.152-0.050 40.32 28.836 60.731 54.713 79.386zM512.928 325.259c22.868 0 42.125-19.257 42.125-42.075 0-22.868-19.257-42.125-42.125-42.125s-42.075 19.257-42.075 42.125c-0.050 22.818 19.207 42.075 42.075 42.075z" />
<glyph unicode="&#xe928;" glyph-name="book" horiz-adv-x="951" d="M475.504-64c-0.684 0-1.269 0.049-1.953 0.098l-455.73 45.114c-10.107 0.976-17.821 9.521-17.821 19.676v939.338c0 5.566 2.344 10.888 6.494 14.647s9.521 5.615 15.233 5.029l455.73-45.114c10.107-1.025 17.821-9.521 17.821-19.676v-939.338c0-5.566-2.392-10.937-6.543-14.647-3.564-3.32-8.349-5.127-13.231-5.127zM39.548 18.807l416.182-41.208v899.644l-416.182 41.159v-899.595zM475.504-64c-4.882 0-9.618 1.807-13.231 5.127-4.15 3.711-6.543 9.081-6.543 14.647v939.338c0 10.156 7.714 18.651 17.821 19.676l455.681 45.114c5.517 0.684 11.083-1.221 15.233-5.029 4.15-3.76 6.543-9.081 6.543-14.647v-939.338c0-10.156-7.714-18.7-17.821-19.676l-455.681-45.163c-0.684 0-1.318-0.049-2.002-0.049zM495.326 877.242v-899.595l416.084 41.257v899.497l-416.084-41.159zM567.685 719.783c-10.058 0-18.7 7.617-19.676 17.821-1.025 10.888 6.884 20.555 17.723 21.629l271.368 26.854c11.62 1.172 20.604-6.884 21.629-17.723 1.025-10.888-6.884-20.555-17.723-21.629l-271.368-26.854c-0.684-0.049-1.318-0.098-1.953-0.098zM567.685 567.303c-10.058 0-18.7 7.617-19.676 17.821-1.025 10.888 6.884 20.555 17.723 21.629l271.368 26.854c11.62 1.221 20.604-6.884 21.629-17.723 1.025-10.888-6.884-20.555-17.723-21.629l-271.368-26.854c-0.684-0.049-1.318-0.098-1.953-0.098zM567.685 414.775c-10.058 0-18.7 7.617-19.676 17.821-1.025 10.888 6.884 20.555 17.723 21.629l271.368 26.854c11.62 0.928 20.604-6.884 21.629-17.723 1.025-10.888-6.884-20.555-17.723-21.629l-271.368-26.902c-0.684 0-1.318-0.049-1.953-0.049zM567.685 262.247c-10.058 0-18.7 7.617-19.676 17.821-1.025 10.888 6.884 20.555 17.723 21.629l271.368 26.854c11.62 0.635 20.604-6.933 21.629-17.723 1.025-10.888-6.884-20.555-17.723-21.629l-271.368-26.854c-0.684-0.049-1.318-0.098-1.953-0.098zM567.685 109.767c-10.058 0-18.7 7.617-19.676 17.821-1.025 10.888 6.884 20.555 17.723 21.629l271.368 26.854c11.62 0.732 20.604-6.933 21.629-17.723 1.025-10.888-6.884-20.555-17.723-21.629l-271.368-26.854c-0.684-0.049-1.318-0.098-1.953-0.098zM383.323 719.783c-0.635 0-1.318 0.049-2.002 0.098l-271.319 26.854c-10.888 1.074-18.798 10.741-17.723 21.629 1.074 10.839 10.595 18.895 21.629 17.723l271.319-26.854c10.888-1.074 18.798-10.741 17.723-21.629-1.025-10.204-9.618-17.821-19.628-17.821zM383.323 567.303c-0.635 0-1.318 0.049-2.002 0.098l-271.319 26.854c-10.888 1.074-18.798 10.741-17.723 21.629 1.074 10.839 10.595 18.651 21.629 17.723l271.319-26.854c10.888-1.074 18.798-10.741 17.723-21.629-1.025-10.204-9.618-17.821-19.628-17.821zM383.323 414.775c-0.635 0-1.318 0.049-2.002 0.098l-271.319 26.902c-10.888 1.074-18.798 10.741-17.723 21.629 1.074 10.839 10.595 18.846 21.629 17.723l271.319-26.854c10.888-1.074 18.798-10.741 17.723-21.629-1.025-10.204-9.618-17.87-19.628-17.87zM383.323 262.247c-0.635 0-1.318 0.049-2.002 0.098l-271.319 26.854c-10.888 1.074-18.798 10.79-17.723 21.629s10.595 18.309 21.629 17.723l271.319-26.854c10.888-1.074 18.798-10.79 17.723-21.629-1.025-10.156-9.618-17.821-19.628-17.821zM383.323 109.767c-0.635 0-1.318 0.049-2.002 0.098l-271.319 26.854c-10.888 1.074-18.798 10.79-17.723 21.629 1.074 10.888 10.595 18.505 21.629 17.723l271.319-26.854c10.888-1.074 18.798-10.79 17.723-21.629-1.025-10.156-9.618-17.821-19.628-17.821z" />
<glyph unicode="&#xe929;" glyph-name="pencil" horiz-adv-x="1023" d="M313.64-62.882c-6.174 0-12.135 2.501-16.499 6.866l-289.637 289.37c-9.154 9.101-9.154 23.897 0 33.051l512.852 513.49c4.364 4.417 10.325 6.866 16.552 6.866v0c6.174 0 12.135-2.448 16.552-6.812l289.583-289.37c9.101-9.101 9.101-23.897 0-33.051l-512.905-513.543c-4.364-4.364-10.325-6.812-16.499-6.866 0 0 0 0 0 0zM57.001 249.853l256.585-256.266 479.8 480.439-256.532 256.319-479.854-480.492zM23.311-64.053c-6.174 0-12.135 2.501-16.499 6.866-4.417 4.364-6.866 10.325-6.812 16.552l0.639 290.541c0 9.474 5.695 17.936 14.423 21.502 8.675 3.566 18.734 1.65 25.44-5.056l289.637-289.37c6.653-6.653 8.728-16.659 5.109-25.44-3.566-8.728-12.081-14.423-21.502-14.477l-290.328-1.118c-0.053 0-0.053 0-0.106 0zM47.208 193.65l-0.479-210.867 210.654 0.905-210.175 209.963zM260.577 255.122c-5.961 0-11.975 2.289-16.499 6.866-9.154 9.101-9.154 23.897 0 33.051l290.009 290.435c9.154 9.154 23.897 9.101 33.051 0 9.101-9.101 9.154-23.897 0-33.051l-290.009-290.488c-4.577-4.524-10.591-6.812-16.552-6.812zM826.438 450.661c-6.174 0-12.135 2.448-16.552 6.812l-289.583 289.424c-9.101 9.101-9.101 23.897 0 33.051l172.973 173.239c4.364 4.364 10.325 6.812 16.552 6.812v0c6.174 0 12.135-2.448 16.552-6.812l289.53-289.424c9.101-9.101 9.101-23.897 0-33.051l-172.92-173.186c-4.364-4.364-10.272-6.866-16.552-6.866v0zM569.906 763.449l256.532-256.319 139.869 140.135-256.479 256.319-139.922-140.135z" />
<glyph unicode="&#xe92a;" glyph-name="settings" d="M511.927-64.049c-20.567 0-42.059 1.413-63.942 4.143-37.917 4.727-66.525 37.137-66.525 75.346v51.222c-16.278 5.653-32.020 12.184-46.982 19.543l-36.211-36.309c-26.415-26.366-71.058-29.193-100.494-6.043-33.531 25.928-63.942 56.291-90.26 90.114-23.247 30.314-20.469 73.397 6.238 100.348l36.309 36.357c-7.359 14.913-13.939 30.704-19.446 46.933h-51.222c-38.209 0-70.619 28.608-75.395 66.476-5.41 42.547-5.41 85.581 0 127.884 4.776 37.819 37.186 66.379 75.395 66.379h51.076c5.605 16.229 12.184 31.971 19.543 46.982l-36.26 36.406c-26.902 26.659-29.68 69.79-6.336 100.153 26.318 33.823 56.729 64.235 90.406 90.455 28.803 22.76 74.031 20.226 100.397-6.092l36.309-36.406c14.865 7.359 30.606 13.939 46.933 19.543v51.222c0 38.063 28.56 70.473 66.379 75.395 42.206 5.361 85.971 5.361 127.982 0 37.868-4.922 66.428-37.332 66.428-75.395v-51.173c16.229-5.556 31.971-12.135 46.982-19.592l36.211 36.357c26.561 26.415 71.399 28.998 100.543 6.092 33.872-26.366 64.235-56.778 90.26-90.357 23.491-30.022 20.859-73.153-6.287-100.251l-36.211-36.357c7.31-14.718 13.89-30.558 19.446-47.031h51.368c38.112 0 70.424-28.56 75.2-66.428 5.361-42.254 5.361-85.289 0-127.836-4.776-37.868-37.088-66.476-75.2-66.476h-51.319c-5.41-16.132-11.989-31.874-19.495-46.982l36.211-36.309c27.146-26.951 29.778-70.132 6.19-100.397-25.635-33.141-55.998-63.503-90.211-90.309-30.411-23.199-74.372-19.836-100.494 6.238l-36.796 36.991c-12.72-7.262-29.193-14.28-46.446-20.226v-51.173c0-38.209-28.608-70.619-66.525-75.346-21.639-2.632-43.132-4.094-63.747-4.094zM332.333 131.335c5.069 0 10.137-1.218 14.767-3.558 17.399-9.016 35.821-16.668 54.828-22.906 13.403-4.143 22.321-16.18 22.321-30.606v-58.825c0-16.717 12.477-30.85 28.998-32.897 40.402-5.069 77.345-5.020 117.211 0 16.57 2.047 28.998 16.18 28.998 32.897v58.825c0 14.377 8.967 26.415 22.76 30.704 18.715 6.092 37.088 13.744 54.292 22.711 14.182 6.872 28.023 3.899 37.771-5.848l41.572-41.718c11.209-11.356 30.655-12.769 43.96-2.583 31.24 24.417 59.068 52.294 82.608 82.657 10.332 13.256 9.162 32.069-2.681 43.814l-41.572 41.67c-10.040 9.552-12.574 24.368-6.19 37.283 9.309 17.691 16.912 35.919 22.809 54.78 4.386 13.792 16.424 22.662 30.801 22.662h58.971c16.57 0 30.655 12.477 32.751 28.998 4.922 38.989 4.922 78.417 0 117.162-2.096 16.522-16.132 28.998-32.751 28.998h-58.971c-14.231 0-26.318 8.821-30.801 22.467-6.092 19.3-13.646 37.576-22.565 54.439-6.628 13.451-4.045 28.267 6.287 38.209l41.231 41.28c11.843 11.843 13.061 30.606 2.778 43.717-23.832 30.801-51.709 58.679-82.803 82.901-12.964 10.137-32.361 8.821-43.911-2.632l-41.426-41.621c-9.991-9.796-25.050-12.184-37.332-6.287-17.789 9.26-36.114 16.912-55.072 23.004-13.597 4.24-22.516 16.327-22.516 30.704v58.874c0 16.619-12.477 30.801-29.096 32.946-38.356 4.971-78.563 4.922-117.016 0-16.57-2.144-29.096-16.278-29.096-32.946v-58.874c0-14.475-9.26-26.854-23.052-30.85-18.617-6.043-36.942-13.695-53.854-22.565-13.159-6.628-28.121-3.899-37.917 6.092l-41.475 41.572c-11.307 11.307-31.143 12.574-43.717 2.681-31.045-24.125-58.922-52.002-82.949-82.949-10.186-13.208-9.016-32.020 2.729-43.717l41.621-41.67c9.942-9.406 12.574-24.222 6.238-37.186-9.211-17.74-16.863-36.114-23.052-55.121-4.289-13.549-16.327-22.467-30.655-22.467h-58.776c-16.717 0-30.85-12.477-32.946-28.998-4.971-38.745-4.971-78.173 0-117.162 2.096-16.522 16.229-28.998 32.946-28.998h58.776c14.036 0 26.074-8.675 30.655-22.078 6.141-19.3 13.744-37.624 22.76-54.975 6.579-13.5 3.948-28.267-6.433-38.063l-41.085-41.231c-11.697-11.745-12.866-30.704-2.681-43.96 23.978-30.85 51.856-58.63 82.706-82.462 13.208-10.43 32.507-8.919 43.911 2.534l41.523 41.621c6.238 6.19 14.328 9.552 22.809 9.552zM512.073 181.583c-71.009 0-137.875 27.731-188.317 78.124-50.442 50.588-78.222 117.357-78.222 188.171 0 70.863 27.731 137.826 78.173 188.512 50.491 50.296 117.357 77.978 188.366 77.978 70.863 0 137.68-27.634 188.025-77.881 50.393-50.54 78.173-117.503 78.173-188.61 0-71.058-27.731-137.875-78.124-188.171-50.442-50.345-117.26-78.124-188.074-78.124zM512.073 671.578c-59.653 0-115.749-23.247-158.101-65.404-42.303-42.596-65.648-98.789-65.648-158.296 0-59.361 23.345-115.456 65.697-157.955 42.352-42.206 98.496-65.502 158.052-65.502 59.41 0 115.456 23.296 157.808 65.55 42.254 42.206 65.55 98.301 65.55 157.906 0 59.702-23.296 115.944-65.55 158.344-42.254 42.108-98.301 65.355-157.808 65.355z" />
<glyph unicode="&#xe92b;" glyph-name="bag" horiz-adv-x="739" d="M718.448-64.050c-0.2 0-0.601-0.050-1.002 0h-695.456c-6.111 0-11.871 2.555-16.029 7.013-4.158 4.408-6.261 10.369-5.911 16.43l50.141 768.939c0.751 11.521 10.369 20.537 21.94 20.537h595.175c11.571 0 21.188-9.016 21.94-20.537l49.69-762.427c0.952-2.454 1.453-5.159 1.453-7.914 0.050-12.172-9.768-22.040-21.94-22.040zM45.482-20.021h648.522l-47.285 724.91h-554.001l-47.235-724.91zM705.224 123.038h-671.062c-12.172 0-21.99 9.868-21.99 21.99s9.818 21.99 21.99 21.99h671.062c12.122 0 21.99-9.868 21.99-21.99s-9.868-21.99-21.99-21.99zM555.504 730.285c-12.122 0-21.99 9.818-21.99 21.99 0 90.313-73.483 163.746-163.796 163.746s-163.796-73.433-163.796-163.746c0-12.172-9.818-21.99-21.99-21.99s-21.99 9.818-21.99 21.99c0 114.557 93.218 207.725 207.775 207.725s207.775-93.168 207.775-207.725c0-12.172-9.868-21.99-21.99-21.99z" />
<glyph unicode="&#xe92c;" glyph-name="price-tag" d="M436.922-64c-5.558 0-11.165 2.134-15.432 6.401l-415.138 415.088c-4.069 4.069-6.352 9.676-6.352 15.432s2.283 11.363 6.352 15.432l565.344 565.294c8.535 8.485 22.28 8.485 30.815 0l415.138-415.138c4.069-4.119 6.401-9.627 6.401-15.432s-2.332-11.314-6.401-15.432l-565.344-565.244c-4.267-4.267-9.825-6.401-15.383-6.401zM52.599 372.922l384.323-384.273 534.479 534.429-384.323 384.323-534.479-534.479zM669.5 546.748c-5.558 0-11.165 2.134-15.432 6.352-27.689 27.689-34.785 71.208-19.948 122.517 13.497 46.843 44.164 95.82 86.193 137.9 91.652 91.602 205.931 120.73 260.466 66.245 54.435-54.485 25.357-168.913-66.245-260.516-8.535-8.485-22.28-8.485-30.815 0-8.485 8.485-8.485 22.28 0 30.815 78.105 78.105 97.607 167.524 66.245 198.885-31.361 31.411-120.73 11.86-198.835-66.245-36.968-37.018-63.665-79.346-75.177-119.192-10.073-34.884-6.848-63.913 8.932-79.594 8.485-8.485 8.535-22.28 0-30.815-4.218-4.218-9.825-6.352-15.383-6.352zM680.566 356.199c-5.558 0-11.165 2.134-15.432 6.401l-240.865 240.865c-8.485 8.485-8.485 22.33 0 30.815 8.535 8.485 22.28 8.485 30.815 0l240.865-240.865c8.485-8.535 8.485-22.28 0-30.815-4.267-4.267-9.825-6.401-15.383-6.401zM553.137 228.82c-5.558 0-11.165 2.134-15.432 6.401l-240.865 240.865c-8.485 8.485-8.485 22.33 0 30.815 8.535 8.485 22.28 8.485 30.815 0l240.865-240.865c8.485-8.535 8.485-22.28 0-30.815-4.218-4.267-9.776-6.401-15.383-6.401z" />
<glyph unicode="&#xe92d;" glyph-name="message-box" horiz-adv-x="1260" d="M586.406-64.047c-3.356 0-6.665 0.851-9.738 2.458l-249.736 132.503h-306.226c-11.487 0-20.752 9.313-20.752 20.752v609.096c0 11.487 9.265 20.752 20.752 20.752h741.221c11.44 0 20.752-9.265 20.752-20.752s-9.313-20.752-20.752-20.752h-720.468v-567.592h290.674c3.404 0 6.76-0.851 9.738-2.458l223.832-118.794v100.452c0 11.44 9.265 20.752 20.752 20.752h393.253v349.811c0 11.487 9.313 20.752 20.752 20.752s20.752-9.265 20.752-20.752v-370.61c0-11.44-9.313-20.752-20.752-20.752h-393.301v-114.161c0-7.28-3.829-14.040-10.069-17.774-3.262-1.938-6.949-2.931-10.683-2.931zM1000.459 441.524c-142.95 0-259.285 116.288-259.285 259.238s116.336 259.285 259.285 259.285c142.902 0 259.238-116.336 259.238-259.285s-116.288-259.238-259.238-259.238zM1000.459 918.543c-120.070 0-217.734-97.711-217.734-217.781s97.663-217.734 217.734-217.734 217.686 97.663 217.686 217.734c0.047 120.070-97.616 217.781-217.686 217.781zM1000.411 601.349c13.047 0 23.919-10.825 23.919-23.872 0-12.622-10.825-23.967-23.919-23.967-13 0-23.919 11.345-23.919 23.967 0 13.047 10.92 23.872 23.919 23.872zM979.99 847.966h40.89l-6.949-208.752h-26.992l-6.949 208.752zM600.54 441.524h-370.279c-11.487 0-20.752 9.265-20.752 20.752s9.265 20.752 20.752 20.752h370.279c11.487 0 20.752-9.265 20.752-20.752s-9.265-20.752-20.752-20.752zM737.959 293.941h-507.698c-11.487 0-20.752 9.313-20.752 20.752s9.265 20.752 20.752 20.752h507.698c11.44 0 20.752-9.313 20.752-20.752s-9.265-20.752-20.752-20.752z" />
<glyph unicode="&#xe92e;" glyph-name="hand" horiz-adv-x="662" d="M528.787 509.296c-2.3 0-4.6 0.444-6.86 1.372-9.039 3.793-13.276 14.164-9.443 23.203l112.262 267.259c5.892 14.003-2.26 30.83-18.038 37.448-7.869 3.309-16.464 3.591-24.010 0.847-7.142-2.583-12.59-7.627-15.375-14.204l-113.029-269.034c-3.793-8.999-14.124-13.276-23.163-9.483s-13.276 14.164-9.443 23.203l113.029 269.034c6.618 15.778 19.329 27.763 35.834 33.776 15.98 5.892 33.695 5.367 49.876-1.453 33.816-14.204 50.401-51.773 37.004-83.854l-112.303-267.259c-2.865-6.779-9.443-10.855-16.343-10.855zM139.541 169.322c-4.398 0-8.837 1.654-12.267 4.963-88.615 85.266-110.527 189.74-63.354 302.083l163.672 389.609c6.255 14.971 18.199 26.673 33.574 32.928 16.343 6.739 35.39 6.456 52.177-0.605 33.776-14.204 50.401-51.773 37.004-83.813l-92.409-219.924c-3.834-8.999-14.245-13.236-23.203-9.483-9.039 3.793-13.276 14.204-9.483 23.203l92.409 219.884c5.851 14.003-2.219 30.83-18.038 37.448-8.232 3.47-17.352 3.632-25.059 0.484-6.618-2.704-11.702-7.627-14.285-13.801l-163.672-389.609c-41.604-99.107-23.001-187.521 55.243-262.86 7.062-6.779 7.264-17.997 0.484-25.059-3.511-3.591-8.111-5.448-12.792-5.448zM295.667 103.95c-10.048 0-18.845 7.586-18.805 17.796 0.040 9.725 7.95 17.675 17.715 17.675 0.525-0.161 0.767-0.040 1.13-0.040 101.125 0 173.438 50.159 214.921 149.105l107.985 256.968c-12.429 2.623-29.619 4.076-45.397-2.381-15.173-6.134-26.391-18.28-34.381-37.125l-39.506-94.305c-3.712-8.878-13.841-13.155-22.719-9.644-4.963 1.897-121.745 45.074-170.734-71.506-3.834-9.039-14.245-13.236-23.203-9.443-9.039 3.793-13.276 14.164-9.483 23.163 45.317 107.823 142.487 111.778 199.788 96.202l33.211 79.253c11.702 27.763 29.861 46.729 54.113 56.414 42.371 16.989 87.485-2.34 89.342-3.148 8.878-3.874 12.994-14.164 9.241-23.082l-115.531-275.047c-59.198-141.034-167.142-170.855-247.687-170.855zM348.126 585.16c-2.3 0-4.6 0.444-6.86 1.372-9.039 3.793-13.276 14.204-9.443 23.203l112.262 267.218c5.892 14.043-2.219 30.91-18.038 37.528-15.697 6.618-33.453 0.646-39.385-13.397l-118.113-281.301c-3.793-8.999-14.204-13.195-23.203-9.483-9.039 3.793-13.276 14.204-9.483 23.203l118.154 281.301c13.478 32 51.934 46.487 85.71 32.363 33.816-14.204 50.401-51.813 37.004-83.894l-112.303-267.259c-2.825-6.779-9.402-10.855-16.303-10.855zM342.235 571.158c-2.3 0-4.6 0.444-6.86 1.372-8.999 3.793-13.236 14.164-9.443 23.203l137.12 326.497c13.478 32.040 51.975 46.567 85.71 32.323 33.816-14.124 50.441-51.733 37.044-83.813l-112.343-267.259c-3.793-9.039-14.124-13.236-23.163-9.483-9.039 3.793-13.276 14.204-9.443 23.203l112.303 267.218c5.851 14.043-2.26 30.83-18.038 37.448-15.859 6.699-33.453 0.686-39.425-13.357l-137.12-326.497c-2.865-6.779-9.443-10.855-16.343-10.855zM291.067-64c-2.3 0-4.641 0.484-6.86 1.412-9.039 3.793-13.276 14.164-9.483 23.163l73.402 174.689c3.793 9.039 14.164 13.276 23.163 9.443 9.039-3.793 13.276-14.164 9.443-23.163l-73.362-174.689c-2.825-6.779-9.362-10.855-16.303-10.855zM17.715 50.805c-2.3 0-4.6 0.484-6.86 1.412-9.039 3.793-13.276 14.164-9.483 23.163l73.362 174.648c3.793 9.039 14.124 13.276 23.203 9.443 9.039-3.793 13.276-14.164 9.483-23.163l-73.362-174.648c-2.865-6.739-9.443-10.855-16.343-10.855z" />
</font>
</defs>
</svg>
